<?xml version="1.0" encoding="utf-8"?>
<!-- Generator: Adobe Illustrator 21.0.2, SVG Export Plug-In . SVG Version: 6.00 Build 0)  -->
<svg version="1.1" id="Layer_1" xmlns="http://www.w3.org/2000/svg" xmlns:xlink="http://www.w3.org/1999/xlink" x="0px" y="0px"
	 viewBox="0 0 1293.1 681" style="enable-background:new 0 0 1293.1 681;" xml:space="preserve">
<style type="text/css">
	.st0{fill:none;stroke:#FFFFFF;stroke-width:2.7473;stroke-miterlimit:10;stroke-dasharray:4.1208,9.6153;}
	.st1{fill:#FED56D;}
	.st2{fill:#FE5B41;}
	.st3{fill:#AC1057;}
	.st4{fill:#383838;}
	.st5{fill:#353535;}
	.st6{fill:#FE3D4A;}
	.st7{fill:#FFFFFF;}
</style>
<path class="st0" d="M24.9,194.1c88-90.6,206-71,266-45.3c156,76.3,38.1,491.3,383,491.3c245.1,0,202.5-290.5,220.6-369.3"/>
<g>
	<g>
		<path class="st1" d="M919.2,201.1c-0.1-0.2-0.3-0.3-0.5-0.3l-1.7-0.3l-17-3.3l-1.5-0.2c-0.2,0-0.4,0-0.6,0.1
			c-19.4,12.1-13.8,34.2-10,43.1c0.4,0.8,1.6,0.6,1.7-0.3c0.2-1.7,0.6-3.5,1.3-5c0.4-0.8,1.6-0.5,1.6,0.3c0.7,12.6,5,18.6,7.2,20.9
			c0.5,0.5,1.4,0.3,1.5-0.5c1.1-8.1,6.2-15.9,11.4-22c0.5-0.6,1.6-0.2,1.5,0.7c-0.1,1.3-0.2,2.5-0.1,3.7c0,0.9,1.3,1.2,1.7,0.3
			c2.1-5.1,5.7-9.2,7.5-14.6C925.9,215.5,925.2,208.9,919.2,201.1z"/>
		<path class="st2" d="M901,233.6c0.6-3.5,2.2-8.6,4.9-12.7c0.5-0.8,1.7-0.3,1.6,0.6c-0.2,1.3-0.2,2.5-0.1,3.4
			c0.1,0.9,1.3,1.1,1.7,0.3c0.9-2,2.3-4.8,4.4-7.5c3.1-4.1,5.6-8.5,5-16.4c0-0.4-0.3-0.7-0.7-0.8l-17.9-3.6c-0.4-0.1-0.8,0.1-1,0.5
			c-5.5,11.7-4.9,27,0.7,36.6C899.8,234.6,900.8,234.4,901,233.6z"/>
	</g>
	<g>
		<path class="st3" d="M955.3,193.8l-17.2-29.3c-0.4-0.7-1.4-0.5-1.6,0.2c-0.8,3.1-1.7,6.2-2.7,9.2l-7.6,23.5
			c-0.1,0.3,0,0.7,0.3,0.9c5.3,4.4,13.3,15.9,14.1,24.9c0.1,0.9,1.3,1.1,1.6,0.3l13.1-29C955.4,194.4,955.4,194.1,955.3,193.8z"/>
		<g>
			<path class="st3" d="M889.6,191.2c0.4-0.1,0.6-0.4,0.6-0.8l1-24.9c0.2-3.3,0.3-6.4,0.7-9.6c0.1-0.8-0.8-1.2-1.4-0.8l-26.2,20.7
				c-0.2,0.2-0.3,0.5-0.3,0.7l2.2,32.1c0.1,0.9,1.3,1.1,1.6,0.3C871.8,201,883.1,193.3,889.6,191.2z"/>
		</g>
	</g>
	<path class="st4" d="M934.3,47.3l-20.6,38.4c-14.2,26.4-22.1,55.7-23.3,85.9l-1.1,29.1l0,0c11.3,5.2,23.8,7.7,36.2,7.2h0.1l9-27.6
		c9.3-28.5,12.1-58.9,8-88.9l-6-43.7C936.5,46.5,934.9,46.3,934.3,47.3z"/>
	<path class="st3" d="M919.1,159.1l-9.1-1.7c-0.5-0.1-1,0.3-1,0.8l-4.8,53.7c-0.1,1.1,1.4,1.3,1.7,0.3l14-52
		C919.9,159.7,919.6,159.2,919.1,159.1z"/>
	<path class="st5" d="M925.5,207.9L925.5,207.9l9.1-27.6c9.3-28.5,12.1-58.9,8-88.9L938.2,59c-0.1-1.1-1.7-1-1.7,0.1
		c-1.6,81.3-12.7,123.1-20.3,147.5c-0.2,0.5,0.2,1,0.7,1.1C919.2,208,921.5,208.1,925.5,207.9z"/>
	<g>
		<path class="st6" d="M929.5,118.3l-0.3,0.3c-0.1,0.2-0.2,0.4-0.2,0.7l0.1,0.5c0.2,0.8,1.2,1,1.6,0.3l1.2-1.9
			c0.3-0.5,0.5-0.9,0.6-1.4l0.4-2.1c0.1-0.5-0.2-0.9-0.7-1l-2.9-0.6c-0.5-0.1-0.9,0.2-1,0.7l-0.4,2.1c-0.1,0.5,0.3,1,0.8,1l0,0
			C929.5,116.9,929.9,117.7,929.5,118.3z"/>
		<path class="st7" d="M925,120.5l-2.2,3.4c-0.4,0.6-1.4,0.5-1.6-0.3l-2.8-12.3c-0.1-0.3-0.3-0.6-0.7-0.7l-3.1-0.7
			c-0.6-0.1-1.2,0.4-1,1l4.5,19c0.1,0.3,0.3,0.6,0.7,0.7l3.9,0.7c0.3,0.1,0.7-0.1,0.9-0.4l3.9-5.9c0.1-0.2,0.2-0.5,0.1-0.7l-0.9-3.6
			C926.4,120,925.4,119.8,925,120.5z"/>
	</g>
</g>
</svg>
