<?xml version="1.0" encoding="utf-8"?>
<!-- Generator: Adobe Illustrator 21.0.2, SVG Export Plug-In . SVG Version: 6.00 Build 0)  -->
<svg version="1.1" id="Layer_1" xmlns="http://www.w3.org/2000/svg" xmlns:xlink="http://www.w3.org/1999/xlink" x="0px" y="0px"
	 viewBox="0 0 300 300" style="enable-background:new 0 0 300 300;" xml:space="preserve">
<style type="text/css">
	.st0{fill:#FFFFFF;}
</style>
<g id="Google_x2B__1_">
	<path class="st0" d="M100,154.5v34.6c0,0,33.5,0,47.1,0c-7.4,22.4-18.9,34.6-47.1,34.6c-28.6,0-50.9-23.2-50.9-51.9
		s22.3-51.9,50.9-51.9c15.1,0,24.9,5.3,33.8,12.7c7.2-7.2,6.6-8.2,24.8-25.5C143.1,93,122.5,84.4,100,84.4
		c-48.1,0-87.1,39.1-87.1,87.3S51.9,259,100,259c71.9,0,89.5-62.8,83.7-104.6L100,154.5L100,154.5z"/>
	<polygon class="st0" points="257,156.3 257,126 235.4,126 235.4,156.3 204.4,156.3 204.4,177.9 235.4,177.9 235.4,209 257,209 
		257,177.9 287.2,177.9 287.2,156.3 	"/>
</g>
</svg>
