<?xml version="1.0" encoding="utf-8"?>
<!-- Generator: Adobe Illustrator 21.0.2, SVG Export Plug-In . SVG Version: 6.00 Build 0)  -->
<svg version="1.1" id="Layer_1" xmlns="http://www.w3.org/2000/svg" xmlns:xlink="http://www.w3.org/1999/xlink" x="0px" y="0px"
	 viewBox="0 0 300 300" style="enable-background:new 0 0 300 300;" xml:space="preserve">
<style type="text/css">
	.st0{fill:#FFFFFF;}
</style>
<g>
	<path class="st0" d="M199.1,56h-98.2c-27.6,0-50,22.4-50,50v98.2c0,27.6,22.4,50,50,50h98.2c27.6,0,50-22.4,50-50V106
		C249.1,78.4,226.6,56,199.1,56z M227.5,204.1c0,15.7-12.8,28.4-28.4,28.4h-98.2c-15.7,0-28.4-12.8-28.4-28.4V106
		c0-15.7,12.7-28.4,28.4-28.4h98.2c15.7,0,28.4,12.7,28.4,28.4V204.1z"/>
	<path class="st0" d="M150,104c-28.1,0-51,22.9-51,51c0,28.1,22.9,51,51,51c28.1,0,51-22.9,51-51C201,126.9,178.1,104,150,104z
		 M150,184.5c-16.2,0-29.5-13.2-29.5-29.5c0-16.2,13.2-29.5,29.5-29.5c16.2,0,29.5,13.2,29.5,29.5
		C179.5,171.3,166.2,184.5,150,184.5z"/>
	<path class="st0" d="M202.7,90.4c-6.7,0-12.1,5.4-12.1,12.1c0,6.7,5.4,12.1,12.1,12.1c6.7,0,12.1-5.4,12.1-12.1
		C214.7,95.9,209.3,90.4,202.7,90.4z"/>
</g>
</svg>
