<?xml version="1.0" encoding="utf-8"?>
<!-- Generator: Adobe Illustrator 21.0.2, SVG Export Plug-In . SVG Version: 6.00 Build 0)  -->
<svg version="1.1" id="Layer_1" xmlns="http://www.w3.org/2000/svg" xmlns:xlink="http://www.w3.org/1999/xlink" x="0px" y="0px"
	 viewBox="0 0 300 300" style="enable-background:new 0 0 300 300;" xml:space="preserve">
<style type="text/css">
	.st0{fill:#FFFFFF;}
</style>
<g id="LinkedIn_4_">
	<rect x="53.8" y="129" class="st0" width="39.5" height="125.1"/>
	<path class="st0" d="M201.2,127.8c-22.6,0-36.8,12.3-39.4,20.8V129h-44.4c0.6,10.4,0,125.1,0,125.1h44.4v-67.7
		c0-3.8-0.2-7.5,1-10.2c3-7.5,9.6-15.3,21.4-15.3c15.4,0,22.4,11.6,22.4,28.5v64.7h44.8v-69.6C251.3,145.8,229.2,127.8,201.2,127.8z
		"/>
	<path class="st0" d="M72.8,70c-14.6,0-24.1,9.4-24.1,21.7c0,12.1,9.3,21.7,23.6,21.7h0.3c14.8,0,24.1-9.6,24.1-21.7
		C96.4,79.3,87.4,70,72.8,70z"/>
</g>
</svg>
