<?xml version="1.0" encoding="utf-8"?>
<!-- Generator: Adobe Illustrator 21.0.2, SVG Export Plug-In . SVG Version: 6.00 Build 0)  -->
<svg version="1.1" id="Layer_1" xmlns="http://www.w3.org/2000/svg" xmlns:xlink="http://www.w3.org/1999/xlink" x="0px" y="0px"
	 viewBox="0 0 300 300" style="enable-background:new 0 0 300 300;" xml:space="preserve">
<style type="text/css">
	.st0{fill:#FFFFFF;}
</style>
<path id="Twitter_4_" class="st0" d="M238,101.7c-7.4,4.5-15.6,7.8-24.3,9.5c-7-7.6-16.9-12.4-27.9-12.4
	c-21.1,0-38.2,17.6-38.2,39.2c0,3.1,0.3,6.1,1,8.9c-31.8-1.6-59.9-17.2-78.8-41c-3.3,5.8-5.2,12.6-5.2,19.7c0,13.6,6.7,25.6,17,32.6
	c-6.3-0.2-12.2-2-17.3-4.9v0.5c0,19,13.2,34.8,30.7,38.4c-3.2,0.9-6.6,1.4-10.1,1.4c-2.5,0-4.9-0.2-7.2-0.7
	c4.9,15.6,19,26.9,35.7,27.2c-13.1,10.5-29.6,16.8-47.5,16.8c-3.1,0-6.1-0.2-9.1-0.5c16.9,11.1,37,17.6,58.6,17.6
	c70.3,0,108.8-59.7,108.8-111.5c0-1.7,0-3.4-0.1-5.1c7.5-5.5,14-12.4,19.1-20.3c-6.8,3.1-14.2,5.2-22,6.2
	C229.1,118.5,235.2,110.8,238,101.7z"/>
</svg>
