<?xml version="1.0" encoding="utf-8"?>
<!-- Generator: Adobe Illustrator 21.0.2, SVG Export Plug-In . SVG Version: 6.00 Build 0)  -->
<svg version="1.1" id="Layer_1" xmlns="http://www.w3.org/2000/svg" xmlns:xlink="http://www.w3.org/1999/xlink" x="0px" y="0px"
	 viewBox="0 0 400 400" style="enable-background:new 0 0 400 400;" xml:space="preserve">
<style type="text/css">
	.st0{fill:#FFFFFF;}
</style>
<g>
	<g>
		<path class="st0" d="M176.6,256.9h-47.3c-2.6,0-4.7,2.1-4.7,4.7s2.1,4.7,4.7,4.7h47.3c2.6,0,4.7-2.1,4.7-4.7
			S179.2,256.9,176.6,256.9z"/>
		<path class="st0" d="M247.3,256.9H200c-2.6,0-4.7,2.1-4.7,4.7s2.1,4.7,4.7,4.7h47.3c2.6,0,4.7-2.1,4.7-4.7
			S249.9,256.9,247.3,256.9z"/>
		<path class="st0" d="M247.3,139.8h-118c-2.6,0-4.7,2.1-4.7,4.7s2.1,4.7,4.7,4.7h118c2.6,0,4.7-2.1,4.7-4.7
			S249.9,139.8,247.3,139.8z"/>
		<path class="st0" d="M247.3,163.2H200c-2.6,0-4.7,2.1-4.7,4.7s2.1,4.7,4.7,4.7h47.3c2.6,0,4.7-2.1,4.7-4.7
			S249.9,163.2,247.3,163.2z"/>
		<path class="st0" d="M247.3,186.6H200c-2.6,0-4.7,2.1-4.7,4.7s2.1,4.7,4.7,4.7h47.3c2.6,0,4.7-2.1,4.7-4.7
			S249.9,186.6,247.3,186.6z"/>
		<path class="st0" d="M247.3,210H200c-2.6,0-4.7,2.1-4.7,4.7s2.1,4.7,4.7,4.7h47.3c2.6,0,4.7-2.1,4.7-4.7S249.9,210,247.3,210z"/>
		<path class="st0" d="M247.3,233.4H200c-2.6,0-4.7,2.1-4.7,4.7s2.1,4.7,4.7,4.7h47.3c2.6,0,4.7-2.1,4.7-4.7
			S249.9,233.4,247.3,233.4z"/>
		<path class="st0" d="M176.6,233.4h-47.3c-2.6,0-4.7,2.1-4.7,4.7s2.1,4.7,4.7,4.7h47.3c2.6,0,4.7-2.1,4.7-4.7
			S179.2,233.4,176.6,233.4z"/>
		<path class="st0" d="M176.6,163.2h-47.3c-2.6,0-4.7,2.1-4.7,4.7v47.3c0,2.6,2.1,4.7,4.7,4.7h47.3c2.6,0,4.7-2.1,4.7-4.7v-47.3
			C181.3,165.3,179.2,163.2,176.6,163.2z M171.9,210.5H134v-37.9h37.9V210.5z"/>
		<path class="st0" d="M294.1,135.1h-14v-14c0-5.2-4.2-9.4-9.4-9.4H105.9c-5.2,0-9.4,4.2-9.4,9.4V271c0,12.9,10.5,23.4,23.4,23.4
			h160.2c12.9,0,23.4-10.5,23.4-23.4V144.5C303.5,139.3,299.3,135.1,294.1,135.1z M294.1,270.9c0,7.7-6.3,14-14,14H119.9
			c-7.7,0-14-6.3-14-14V121h164.9v142.8c0,6.5,5.3,11.7,11.7,11.7c2.6,0,4.7-2.1,4.7-4.7s-2.1-4.7-4.7-4.7c-1.3,0-2.3-1.1-2.3-2.3
			V144.5h14v126.4H294.1z"/>
	</g>
	<g>
		<path class="st0" d="M200,394.2C92.9,394.2,5.8,307.1,5.8,200C5.8,92.9,92.9,5.8,200,5.8S394.2,92.9,394.2,200
			C394.2,307.1,307.1,394.2,200,394.2z M200,14C97.5,14,14,97.5,14,200s83.4,186,186,186c102.5,0,186-83.4,186-186S302.5,14,200,14z
			"/>
	</g>
</g>
</svg>
