<?xml version="1.0" encoding="utf-8"?>
<!-- Generator: Adobe Illustrator 21.0.2, SVG Export Plug-In . SVG Version: 6.00 Build 0)  -->
<svg version="1.1" id="Layer_1" xmlns="http://www.w3.org/2000/svg" xmlns:xlink="http://www.w3.org/1999/xlink" x="0px" y="0px"
	 viewBox="0 0 697.7 1065.4" style="enable-background:new 0 0 697.7 1065.4;" xml:space="preserve">
<style type="text/css">
	.st0{fill:#595959;}
	.st1{fill:#FED56D;}
	.st2{fill:#404040;}
	.st3{fill:#001E61;}
	.st4{fill:#EEEEEE;}
	.st5{fill:#424242;}
	.st6{fill:#042263;}
	.st7{fill:#EDEDED;}
	.st8{fill:#BCD8DC;}
	.st9{fill:#B9D3D7;}
	.st10{fill:#FE5B41;}
	.st11{fill:#011E61;}
	.st12{fill:#28BDB3;}
	.st13{fill:#FFFFFF;}
	.st14{fill:#3B3F45;}
	.st15{fill:#4C5056;}
	.st16{fill:#696D73;}
	.st17{fill:#74787E;}
</style>
<g>
	
		<image style="overflow:visible;opacity:0.73;" width="205" height="458" xlink:href="12696CF09DE9882D.png"  transform="matrix(1 0 0 1 246.7224 202.2036)">
	</image>
	<g>
		<g>
			<path class="st0" d="M300.6,408.5c-0.8-14.7,2.4-29.3,5.2-43.6c4.2-22.6,10.3-45,18.6-66.5c4-2.7,7.9-0.4,11.5,0.7
				c9.2,2.8,18.6,1.4,27.8,1.7c3.6,1.8,4.5,5.2,4.9,8.6c3,21.4,6.4,42.7,7.7,64.2c0.9,13.5,0.6,27.2,2.1,40.7
				c-0.6,1.2-1.4,1.9-2.5,2.3c-23.1,2.5-46.2,3.8-68.7-4.5C305.1,411.3,302.2,411.1,300.6,408.5z"/>
			<path class="st0" d="M317.5,528.2c-3.4-5.2-4.4-11.3-6.6-17c-0.8-2.3-1.1-5-4.6-2.8c-1-14.8-5.8-28.9-7.4-43.6
				c-0.8-8-1.2-15.8-0.1-23.9c0.1-8.4,1.4-16.9,0.3-25.3c1.8-3.6,4.5-1.9,6.9-1.2c13.1,4.8,26.8,6.4,40.7,7.4
				c9.6,0.8,18.9-2.1,28.4-1.8c0.6,0.3,1.2,0.9,1.7,1.6c2,12.2,1.3,24.5,0.4,36.7c-1.6,22.6-5.9,44.5-10.6,66.5
				c-0.5,2.1-0.4,4.2-0.6,6.4c-4.6,4.9-10.1,5-16,2.6c-3.3-2.8-2.1-6.5-1.8-9.8c2.6-26.4,5.5-52.5,8.4-78.8c0.4-3.4,0.1-5.3-3.9-5.1
				c-2.1,0.1-4.3,0-6.4-0.3c-3.7-0.4-5.3,1.1-5,5.2c2.4,28.2,4.8,56.3,6.5,84.4c0.2,1.6,0.4,3.2,1.7,4.2c1.9,2.8,2.7,5.9-0.3,7.8
				c-2.9,1.8-3.9-1.4-5.2-3.4c-2.3-3.3-6.1-3.2-9.4-3.8c-3.2-0.5-6.3-1.5-9.4-1.9C322.1,531.8,319.3,530.9,317.5,528.2z"/>
			<path class="st1" d="M317.5,528.2c2.5,0.8,5.1,1.8,7.6,2.6c3.1,6.2-1.4,13,1.2,19.3c0.7,1.9,0.6,4.2,1.1,6.2
				c0.3,0.7,0.7,2.2,0.9,2.1c12.5-2.7,7.3,10.3,12.6,14.2c3,2.2,2.8,8.3,7.5,8.6c5.1,0.2,6.1-5.3,8.3-8.8c1.8-3,3.4-6,4.6-9.4
				c0.6-1.7,1.3-4.4,2.8-4.6c10.1-1.3,7.2-9.2,8.1-15.3c0.8-4.8-2.4-9.4-0.4-14.2c2.2-2.1,4.7-3.2,7.8-1.9
				c13.8,16.5,9.7,51-1.4,64.1c-2.1-3,1.1-9.1-2.7-9.6c-4.8-0.6-4.1,5.9-5.3,9.2c-3.7,9.5-8.6,18.5-14.5,26.9c-5,7.1-8,7.2-13.5,0.3
				c-8.9-11-14.3-23.5-18.1-37c-0.3-1-1-1.7-1.9-3.6c-1.2,5.3-2.5,9.6-2.2,14.6C307.1,578.1,304.9,546.5,317.5,528.2z"/>
			<path class="st2" d="M379.5,527.2c-2.6,1-5,2.1-7.6,3.1c-1.9,3.4-4.7,2.4-7.3,0.9c-1.8-8.6,2-16.6,3.6-24.7
				c5.8-28,8.6-56.2,7.5-84.7c6.3-5.5,13.9-7.4,22-7.1c2.3,5.4,0.8,11.1,1.1,16.6c0.2,3.7,0.5,7.6,0.8,11.3
				c0.7,18.3-1.7,36.2-6.8,53.7c-1,3.6,0.2,8.2-4.2,10.6C384.5,513,384.3,521.2,379.5,527.2z"/>
			<path class="st2" d="M378.1,414c-1.2-0.6-2.2-1.2-2.2-2.9c0-12.4-1-24.9-1.5-37.3c-0.8-17-3.6-33.9-5.7-50.7
				c-0.9-7.3-0.4-15-5-21.4c-0.1-1.3,0.7-2,1.7-2.5c3.5-0.5,7-1.7,10.6-1.8c12.5,34.6,19.6,70.4,22.8,106.9c0.1,0.7-0.3,1.6-0.5,2.3
				C393.3,413.5,386,414.8,378.1,414z"/>
			<path class="st3" d="M298.8,440.9c1.4,12.6,2.7,25.1,4.3,37.7c0.8,6.2,2.1,12.5,4.1,18.5c1.3,4.1,1,7.7-1,11.3
				c-6.5,11.2-7.8,23.7-7.7,37.2c-7.8-9.2-11.2-20-17.1-29.3c-3.8-5.9-6.4-12.8-10.4-18.8c-2.4-3.8-2.8-7.5-0.7-11.2
				C279.6,471.1,289.3,456.2,298.8,440.9z"/>
			<path class="st3" d="M388.8,506.8c5.8-21,8.3-42.7,11-64.2c9.2,15.2,18.6,30.3,27.9,45.6c0.9,1.3,1,2.4,0.4,3.6
				c-9.4,17.1-18.9,34.3-29.6,53.5C395.8,530.4,398.1,517,388.8,506.8z"/>
			<path class="st0" d="M327.2,292.8c3.6-15.4,11.1-29.3,18-43.5c3.2,0.4,5.3,3.5,8.7,3.1c1.6,0.4,3,1,3.5,2.8
				c3.7,13,6.4,26,7.9,39.5c-0.3,0.8-0.8,1.3-1.4,1.9C351.1,301.2,338.8,300,327.2,292.8z"/>
			<path class="st4" d="M374.7,420.8c-19.9,4.9-39.6,2.9-59.3-1.5c-5.5-1.3-10.3-4.9-16.3-3.7c0.5-2.3,1-4.8,1.6-7.1
				c20.6,7.2,41.9,9.7,63.5,8.2c3.9-0.3,7.4-3.3,11.4-1.2C377.6,417.8,377.2,419.4,374.7,420.8z"/>
			<path class="st5" d="M364.7,294.5c-2.9-12.9-5.6-26-8.4-38.9c-0.2-0.8-1.3-1.4-2.2-2c-0.5-2.4,0-4,3-4.2
				c6.5,13.4,12.3,27,16.6,41.3C372.4,295.9,369.5,297.3,364.7,294.5z"/>
			<path class="st6" d="M356.9,249.2c-1,1.4-2,2.7-3,4.2c-5.6,4.2-6.2-2-8.9-4.2c1.7-12.6,3.2-25.3,4.9-37.8
				C354.7,223.6,354.9,236.7,356.9,249.2z"/>
			<path class="st7" d="M327.2,292.8c11.9,3.8,23.9,5.5,36.4,3.1c2.2,0.6,3.3,2,2.9,4.2c-0.9,0.4-1.9,0.9-2.7,1.5
				c-13.5,4-26.4,0.2-39.3-3.1C325.3,296.6,326.2,294.6,327.2,292.8z"/>
			<path class="st8" d="M374.7,420.8c1.1-1.5,1.4-3.3,1-5.1c0.8-0.5,1.7-1.2,2.5-1.7c7-1.9,14.1-3.1,20.3-7.3
				c1.6,2.9,0.8,5.4-0.6,8.2c-7.3,2.3-14.8,4.7-22,7.1C375.5,421.4,375.1,421.1,374.7,420.8z"/>
			<path class="st9" d="M366.5,300.2c-1-1.5-1.9-2.8-2.9-4.2c0.4-0.5,0.7-0.9,1.1-1.5c3.5,0,7-0.2,9-3.8c0.7,2.2,1.6,4.5,2.3,6.8
				C373.2,299.6,370.3,301.3,366.5,300.2z"/>
			<path class="st0" d="M347.4,371.9c0.6-1.6,1.2-3.1,2.1-4.3c1.5-2,1-7.1,4.9-5.5c2.1,0.9,3.8,4.7,3.6,8c-0.5,7.7-7.1,14.5-13,14.1
				c-2.5-0.2-4.1-1.5-4.9-3.4c-4.1-9.6-8.1-19.2-12-28.9c-0.6-1.7-3.9-4.9,0-5.6c2.5-0.6,6.3-1.8,8.5,2.7
				C340.3,356.4,342.3,364.7,347.4,371.9z"/>
			<path class="st0" d="M364.9,347.7c0.6,4.2,0.8,8.5-2,12c-1,1.3-3.2,0.1-2.8-1c1.8-4.9-8.2-8-2.3-13
				C359.2,344.5,362.8,345.3,364.9,347.7z"/>
			<path class="st10" d="M364.5,531.3c2.5-0.3,4.8-0.6,7.3-0.9c3.9,9.7,2.5,19.2-0.4,28.8c-0.6,2.2-0.9,5.5-4.2,1.2
				c-3-3.8-3.7,1.2-4,2.6c-1.6,6.7-5.4,12.2-9,17.6c-3.9,5.9-7.5,5.5-11.3-0.6c-4.2-6.8-7.9-13.8-9.5-21.6c-3.9,0.5-1.4,3.9-4,5.8
				c-6.9-10.6-6.2-21.7-4.1-33.2c4.1,0.7,8.2,1,12.3,2.1c4.5,1.2,12-0.6,8.8,9.5c4.7-3,2.5-6,2.9-8.2c-0.1-0.7,0.2-1.1,0.9-1.2
				C355.2,534.4,359.8,532.4,364.5,531.3z"/>
			<path class="st11" d="M350.2,533c-0.4,0.3-0.7,0.7-0.9,1.2c-6.1-4.4-3.6-11.3-4-16.6c-2-24.7-3.5-49.5-6.2-74.1
				c-0.3-3.3,0.1-5.5,4.8-5.6c14.6-0.1,14.4-0.4,13.4,12.3c-1.8,25.4-5.1,50.5-7.8,75.8C349.2,528.2,348.3,530.8,350.2,533z"/>
			<g>
				<path class="st12" d="M363.2,357l-2.3,4.1l2.2,5.5l3.8-8c0.5-0.9,0.7-2,0.8-3.1l0.3-6l-9.3-0.2l-0.3,7.8L363.2,357z"/>
				<polygon class="st13" points="355,361.8 348.4,376.2 337.5,348.7 327.3,348.3 343.1,387.1 353.2,387.2 359.9,373 				"/>
			</g>
		</g>
	</g>
</g>
<g>
	<path class="st14" d="M348.8,1057.3c113.8,0,206.1-92.3,206.1-206.1s-92.3-206.1-206.1-206.1V1057.3z"/>
	<path class="st15" d="M348.8,645.2c-113.8,0-206.1,92.3-206.1,206.1c0,113.8,92.3,206.1,206.1,206.1V645.2z"/>
	<g>
		<path class="st16" d="M488.9,700.6l-9.2,3.7l-3.9,4.3l0.9,5l4.8,0.7l2.9,7.3l8.2-3.4l1.4,9.8h-2.5l-6.7-1l-7.5,1.3l-7.2,10.4
			l-10.3,1.7l-1.5,9l4.4,1.1l-1.3,5.8l-10.3-2.1l-9.4,2.1l-2,5.4l1.6,11.2l5.5,2.6l9.3-0.1l6.3-0.6l1.9-5.1l9.8-13l6.4,1.3l6.3-5.9
			l1.2,4.6l15.6,10.8l-1.9,2.6l-7-0.4l2.7,3.9l4.3,1l5.1-2.2l-0.1-6.2l2.3-1.2l-1.8-2l-10.4-5.9l-2.7-7.9h8.6l2.7,2.8l7.5,6.6
			l0.3,7.9l7.7,8.4l2.9-11.5l5.4-3l1,9.4l5.2,5.9l5.6-0.1c-11.4-29.1-29.3-54.9-51.8-75.5L488.9,700.6z"/>
		<path class="st16" d="M546.7,793H534l-9.7-7.4l-10.2,1v6.4h-3.2l-3.5-2.5l-17.7-4.6v-11.7l-22.4,1.8l-7,3.8h-8.9l-4.4-0.4
			l-10.8,6.1v11.5L414,813.2l1.8,7h4.5l-1.2,6.6L416,828l-0.2,17.3l19.1,22.2h8.3l0.5-1.4h15l4.3-4.1h8.5l4.6,4.8l12.6,1.3
			l-1.6,17.2l14,25.3l-7.4,14.4l0.5,6.8l5.8,5.9v16.3l7.6,10.5v13.6h3c27.6-34.8,44.2-79.1,44.2-127.3
			C554.9,830.8,552,811.3,546.7,793z"/>
		<polygon class="st16" points="453.8,737.3 459.6,737.3 467.4,736.5 471.3,731.7 467.1,730 464.8,727.3 461.3,721.5 459.7,713.3 
			453.1,714.7 451.3,717.6 451.2,720.8 454.4,723 458.9,725.9 459.3,729.2 454.5,730.2 		"/>
		<polygon class="st16" points="444.5,723.8 440.5,730.3 440.5,730.3 440.5,734.5 445.1,734.5 453.3,728.6 453.7,724.2 449.8,722.5 
					"/>
	</g>
	<path class="st17" d="M348.8,942.5v-61.8l-11.8-4.5l-0.7-10l-4.7-8.2l-12.7-0.2l-7.4-11.5l-6.5-3.2l-0.3,3.5l-11.9,0.7l-4.3-6
		l-12.4-2.5L266,850.5l-16-2.7l-1.2-18.1l-11.7-2l4.7-8.9l-1.3-5.1L225.1,824l-9.7-1.2l-3.5-7.6l2.1-7.8l5.3-9.8l12.3-6.2l23.7,0
		l-0.1,7.2l8.5,4l-0.7-12.4l6.1-6.2l12.4-8.1l0.8-5.7l12.4-12.9l13.1-7.3l-1.2-1l8.9-8.4l3.3,0.9l1.5,1.9l3.4-3.7l0.8-0.4l-3.7-0.5
		l-3.7-1.2V734l2-1.6h4.4l2,0.9l1.7,3.5l2.1-0.3v-0.3l0.6,0.2l6.2-1l0.9-3l3.5,0.9v3.3l-3.3,2.2h0l0.5,3.6l11.2,3.4c0,0,0,0.1,0,0.1
		l2.6-0.2l0.2-4.8l-8.9-4l-0.5-2.3l7.3-2.5l0.3-7l-7.7-4.7l-0.5-11.9l-10.5,5.2h-3.8l1-9l-14.3-3.4l-5.9,4.5v13.7l-10.7,3.4
		l-4.3,8.9l-4.6,0.7v-11.4l-10-1.4l-5-3.3l-2-7.4l17.9-10.5l8.8-2.7l0.9,5.9l4.9-0.3l0.4-3l5.1-0.7l0.1-1l-2.2-0.9l-0.5-3.1l6.3-0.5
		l3.8-4l0.2-0.3l0,0l1.2-1.2l13.2-1.7l5.8,5l-15.3,8.2l19.4,4.6l2.5-6.5h8.5l3-5.7l-6-1.5v-7.2l-18.9-8.4l-13,1.5l-7.4,3.8l0.5,9.4
		l-7.7-1.2l-1.2-5.2l7.4-6.7l-13.4-0.7l-3.8,1.2l-1.7,4.5l5,0.8l-1,5l-8.5,0.5l-1.3,3.3l-12.3,0.3c0,0-0.3-7-0.8-7
		c-0.5,0,9.7-0.2,9.7-0.2l7.4-7.2l-4-2l-5.3,5.2l-8.9-0.5l-5.3-7.4h-11.4L242,680h10.9l1,3.2l-2.8,2.7l12,0.3l1.8,4.3l-13.5-0.5
		l-0.7-3.3l-8.5-1.8l-4.5-2.5l-6.7,0.1c-30.8,21.2-55.4,50.9-70.3,85.6v9.7l8.4,4v15.9l8,13.7l6.5,1l0.8-4.7l-7.7-11.9l-1.5-11.5
		h4.5l1.9,11.9l11.1,16.2l-2.9,5.2l7.1,10.8l17.6,4.4v-2.8l7,1l-0.7,5l5.5,1l8.5,2.4l12,13.7l15.4,1.2l1.5,12.5l-10.5,7.4l-0.5,11.2
		l-1.5,6.8l15.2,19.1l1.2,6.5c0,0,5.5,1.5,6.2,1.5c0.7,0,12.4,8.9,12.4,8.9v34.4l4.2,1.2l-2.8,15.9l7,9.4l-1.3,15.7l9.3,16.3
		l11.9,10.4l12,0.2l1.2-3.8l-8.8-7.4l0.5-3.7l1.6-4.5l0.3-4.6l-5.9-0.2l-3-3.8l4.9-4.8l0.7-3.6l-5.5-1.6l0.3-3.3l7.9-1.2l11.9-5.7
		l4-7.4l12.5-16l-2.8-12.6L348.8,942.5z"/>
	<polygon class="st16" points="373.9,890.2 368.8,881.7 351.1,881.5 348.8,880.7 348.8,942.5 349.9,940.7 361.4,941 369.2,934.9 
		371.7,910.7 380.3,899.7 381.8,892.7 	"/>
	<polygon class="st17" points="348.8,960 348.9,959.9 348.8,959.6 	"/>
</g>
</svg>
