<?xml version="1.0" encoding="utf-8"?>
<!-- Generator: Adobe Illustrator 21.0.2, SVG Export Plug-In . SVG Version: 6.00 Build 0)  -->
<svg version="1.1" id="Layer_1" xmlns="http://www.w3.org/2000/svg" xmlns:xlink="http://www.w3.org/1999/xlink" x="0px" y="0px"
	 viewBox="0 0 400 400" style="enable-background:new 0 0 400 400;" xml:space="preserve">
<style type="text/css">
	.st0{fill:#FFFFFF;}
</style>
<g>
	<path class="st0" d="M277.4,328.5h-1.9c-2-10-10.9-17.5-21.5-17.5h-38v-9.2c14.4-0.5,29-3.5,43.1-9.4c1.1-0.4,1.9-1.3,2.4-2.4
		c0.4-1.1,0.4-2.3,0-3.4l-2.2-5.4c-0.9-2.2-3.5-3.3-5.7-2.4s-3.3,3.5-2.4,5.7l0.5,1.3c-11.7,4.4-23.8,6.7-35.7,7.1v-1.4
		c0-2.4-2-4.4-4.4-4.4s-4.4,2-4.4,4.4v1.4c-43.6-1.7-84.4-28.2-102.2-71.1c-23.8-57.4,2.4-123.3,58.4-149l0.5,1.3
		c0.9,2.2,3.5,3.3,5.7,2.4s3.3-3.5,2.4-5.7l-2.2-5.4c-0.9-2.2-3.5-3.3-5.7-2.4C101,89.3,70.8,162,97,225.2
		c19.2,46.3,63.2,74.8,110.3,76.5v9.2h-38c-10.6,0-19.4,7.5-21.5,17.5H146c-2.4,0-4.4,2-4.4,4.4s2,4.4,4.4,4.4h131.4
		c2.4,0,4.4-2,4.4-4.4C281.8,330.5,279.8,328.5,277.4,328.5L277.4,328.5z M169.3,319.7H254c5.7,0,10.6,3.7,12.4,8.8H157
		C158.8,323.4,163.6,319.7,169.3,319.7z"/>
	<path class="st0" d="M302.4,221.5c12-25,13.8-54.7,2.4-82.3C289.1,101.4,252.6,77,211.6,77c-13.2,0-26.2,2.6-38.5,7.7
		c-24.9,10.3-44.2,29.7-54.5,54.5c-10.3,24.9-10.3,52.2,0,77.1c15.7,37.8,52.2,62.2,93.1,62.2c13.2,0,26.2-2.6,38.5-7.7
		c23.4-9.7,41.2-27.2,51.6-48.3C302.1,222.3,302.2,221.9,302.4,221.5L302.4,221.5z M295.8,214.8c-7.3-2.2-14.8-3.5-22.3-4
		c-0.4-5.3-1.1-10.8-2.2-16.4c-0.4-2.4-2.7-3.9-5.1-3.5s-3.9,2.7-3.5,5.1c0.9,5,1.6,9.9,2,14.6c-10.9,0.2-21.8,2.3-32.2,6.1
		l-15.1-36.5l36.4-15.1c1.8,4.7,3.5,9.5,4.9,14.3c0.7,2.3,3.1,3.6,5.4,3c2.3-0.7,3.6-3.1,3-5.4c-1.5-5.1-3.2-10.1-5.2-15.2
		l36.4-15.1C306.5,169.5,305,193.8,295.8,214.8L295.8,214.8z M172.9,198.5l36.4-15.1l15.1,36.5c-10,4.7-19.1,10.9-27,18.5
		C188.1,227.5,179.7,213.8,172.9,198.5L172.9,198.5z M250.4,157l-36.3,15L199,135.5c10-4.7,19.1-10.9,27-18.5
		C235.3,128,243.7,141.7,250.4,157L250.4,157z M158.5,128.1c1.1-16.1,6.1-27.7,14.1-33.3l14.9,35.9c-9.4,3.4-19.3,5.2-29.2,5.4
		C158.2,133.4,158.3,130.7,158.5,128.1z M195.6,127.4l-14.9-35.9c9.6-1.7,21.3,3,33.5,13.5c2,1.7,3.9,3.6,5.8,5.5
		C212.9,117.4,204.7,123.1,195.6,127.4L195.6,127.4z M190.8,138.9l15.1,36.5l-36.4,15.1c-6-15.5-9.8-31.1-10.9-45.5
		C169.6,144.7,180.4,142.6,190.8,138.9z M250.7,260.6l-14.9-35.9c9.4-3.4,19.3-5.2,29.2-5.4C265.2,238.9,260.1,254,250.7,260.6z
		 M227.8,228.1l14.9,35.9c-9.6,1.7-21.3-3-33.5-13.5c-2-1.7-3.9-3.6-5.8-5.5C210.5,238.1,218.7,232.4,227.8,228.1z M294.9,138.5
		l-36.4,15.1c-7.2-16.4-16.3-31.1-26.5-42.9c5-5.7,9.4-12,13-18.7C266.7,100.4,284.7,116.8,294.9,138.5L294.9,138.5z M236.6,89.2
		c-3,5.4-6.5,10.4-10.5,15c-2-2-4.1-4-6.1-5.8c-6.2-5.4-12.4-9.5-18.5-12.1c3.4-0.4,6.8-0.6,10.2-0.6
		C220.2,85.7,228.6,86.9,236.6,89.2L236.6,89.2z M154.2,105.8c-2.4,6.2-3.9,13.4-4.5,21.7c-0.2,2.7-0.3,5.5-0.3,8.4
		c-6.1-0.5-12.1-1.5-18-3.2C137.3,122.3,145,113.2,154.2,105.8z M126.7,142.5c0.3-0.6,0.5-1.2,0.8-1.8c7.3,2.2,14.8,3.5,22.4,4
		c1.2,15.5,5.1,32.4,11.6,49.1l-36.4,15.1C117.3,187.3,117.9,163.9,126.7,142.5z M128.5,217l36.4-15.1c7.2,16.4,16.3,31.1,26.5,42.9
		c-5,5.7-9.4,12-13,18.7C156.7,255.1,138.7,238.7,128.5,217L128.5,217z M186.8,266.3c3-5.4,6.5-10.4,10.5-15c2,2,4.1,4,6.1,5.8
		c6.2,5.4,12.4,9.5,18.5,12.1c-3.4,0.4-6.8,0.6-10.2,0.6C203.1,269.8,194.8,268.6,186.8,266.3L186.8,266.3z M269.1,249.6
		c0.9-2.3,1.7-4.8,2.3-7.4c1.7-6.8,2.5-14.4,2.4-22.6c6.1,0.5,12.1,1.5,18,3.2C286.2,232.9,278.5,242.1,269.1,249.6z"/>
</g>
<g>
	<path class="st0" d="M200,394.2C92.9,394.2,5.8,307.1,5.8,200C5.8,92.9,92.9,5.8,200,5.8S394.2,92.9,394.2,200
		C394.2,307.1,307.1,394.2,200,394.2z M200,14C97.5,14,14,97.5,14,200s83.4,186,186,186c102.5,0,186-83.4,186-186S302.5,14,200,14z"
		/>
</g>
</svg>
