<?xml version="1.0" encoding="utf-8"?>
<!-- Generator: Adobe Illustrator 21.0.2, SVG Export Plug-In . SVG Version: 6.00 Build 0)  -->
<svg version="1.1" id="Layer_1" xmlns="http://www.w3.org/2000/svg" xmlns:xlink="http://www.w3.org/1999/xlink" x="0px" y="0px"
	 viewBox="0 0 400 400" style="enable-background:new 0 0 400 400;" xml:space="preserve">
<style type="text/css">
	.st0{fill:#FFFFFF;}
</style>
<path class="st0" d="M253.9,271.2c-7.5,0-14.2,3.6-18.4,9.2l-131.2-63.5c2.2-3.5,3.5-7.7,3.5-12.2c0-4.4-1.2-8.5-3.4-12l129.9-62.8
	c4.2,5.9,11,9.7,18.8,9.7c12.7,0,23.1-10.4,23.1-23.1s-10.4-23.1-23.1-23.1c-12.7,0-23.1,10.4-23.1,23.1c0,2.2,0.3,4.3,0.9,6.4
	L99.1,186.7c-4-3.2-9-5.1-14.4-5.1c-12.7,0-23.1,10.4-23.1,23.1s10.4,23.1,23.1,23.1c5.3,0,10.2-1.8,14.2-4.9l133,64.3
	c-0.7,2.2-1.1,4.6-1.1,7c0,12.7,10.4,23.1,23.1,23.1S277,307,277,294.3S266.6,271.2,253.9,271.2z M253.1,101.2
	c8.4,0,15.3,6.9,15.3,15.3s-6.9,15.3-15.3,15.3s-15.3-6.9-15.3-15.3S244.7,101.2,253.1,101.2z M84.7,220c-8.4,0-15.3-6.9-15.3-15.3
	c0-8.4,6.9-15.3,15.3-15.3s15.3,6.9,15.3,15.3C100,213.2,93.1,220,84.7,220z M253.9,309.6c-8.4,0-15.3-6.9-15.3-15.3
	c0-8.4,6.9-15.3,15.3-15.3c8.4,0,15.3,6.9,15.3,15.3C269.2,302.7,262.3,309.6,253.9,309.6z"/>
<g>
	<path class="st0" d="M200,394.2C92.9,394.2,5.8,307.1,5.8,200C5.8,92.9,92.9,5.8,200,5.8S394.2,92.9,394.2,200
		C394.2,307.1,307.1,394.2,200,394.2z M200,14C97.5,14,14,97.5,14,200s83.4,186,186,186c102.5,0,186-83.4,186-186S302.5,14,200,14z"
		/>
</g>
</svg>
