<?xml version="1.0" encoding="utf-8"?>
<!-- Generator: Adobe Illustrator 21.0.2, SVG Export Plug-In . SVG Version: 6.00 Build 0)  -->
<svg version="1.1" id="Layer_1" xmlns="http://www.w3.org/2000/svg" xmlns:xlink="http://www.w3.org/1999/xlink" x="0px" y="0px"
	 viewBox="0 0 400 400" style="enable-background:new 0 0 400 400;" xml:space="preserve">
<style type="text/css">
	.st0{fill:none;stroke:#FFFFFF;stroke-width:8;stroke-linejoin:round;stroke-miterlimit:10;}
	.st1{fill:#FFFFFF;}
</style>
<polygon class="st0" points="200,261.8 123.6,317.6 153,227.7 76.3,172.2 170.9,172.4 200,82.4 229.1,172.4 323.7,172.2 247,227.7 
	276.4,317.6 "/>
<g>
	<path class="st1" d="M200,394.2C92.9,394.2,5.8,307.1,5.8,200C5.8,92.9,92.9,5.8,200,5.8S394.2,92.9,394.2,200
		C394.2,307.1,307.1,394.2,200,394.2z M200,14C97.5,14,14,97.5,14,200s83.4,186,186,186c102.5,0,186-83.4,186-186S302.5,14,200,14z"
		/>
</g>
</svg>
