<?xml version="1.0" encoding="utf-8"?>
<!-- Generator: Adobe Illustrator 21.0.2, SVG Export Plug-In . SVG Version: 6.00 Build 0)  -->
<svg version="1.1" id="Layer_1" xmlns="http://www.w3.org/2000/svg" xmlns:xlink="http://www.w3.org/1999/xlink" x="0px" y="0px"
	 viewBox="0 0 330.1 236.6" style="enable-background:new 0 0 330.1 236.6;" xml:space="preserve">
<style type="text/css">
	.st0{fill:#FFFFFF;}
	.st1{fill:#333333;}
	.st2{fill:#009987;}
	.st3{font-family:'Roboto-Black';}
	.st4{font-size:117.9177px;}
</style>
<g>
	<g id="XMLID_1_">
		<g>
			<path class="st0" d="M116.6,15.4c56.8,0,102.9,46.1,102.9,102.9s-46.1,102.9-102.9,102.9S13.7,175.1,13.7,118.3
				S59.8,15.4,116.6,15.4z M206.7,118.4c0-49.7-40.4-90.1-90.1-90.1c-49.6,0-90,40.3-90,90s40.3,90.2,90,90.2
				S206.7,168.1,206.7,118.4z"/>
			<path class="st1" d="M116.6,2.6c63.9,0,115.7,51.8,115.7,115.7S180.5,234,116.6,234S0.9,182.2,0.9,118.3S52.7,2.6,116.6,2.6z
				 M219.5,118.3c0-56.8-46.1-102.9-102.9-102.9S13.7,61.5,13.7,118.3s46.1,102.9,102.9,102.9S219.5,175.1,219.5,118.3z"/>
			<path class="st2" d="M116.6,28.3c49.7,0,90.1,40.4,90.1,90.1s-40.4,90.1-90.1,90.1s-90-40.5-90-90.2S67,28.3,116.6,28.3z"/>
		</g>
		<g>
		</g>
	</g>
</g>
<text transform="matrix(1 0 0 1 82.478 153.68)" class="st0 st3 st4">2</text>
</svg>
