<?xml version="1.0" encoding="utf-8"?>
<!-- Generator: Adobe Illustrator 21.0.2, SVG Export Plug-In . SVG Version: 6.00 Build 0)  -->
<svg version="1.1" id="Layer_1" xmlns="http://www.w3.org/2000/svg" xmlns:xlink="http://www.w3.org/1999/xlink" x="0px" y="0px"
	 viewBox="0 0 500 500" style="enable-background:new 0 0 500 500;" xml:space="preserve">
<style type="text/css">
	.st0{fill:#323436;}
</style>
<g>
	<g>
		<g>
			<path class="st0" d="M150.5,420h-37.2c-2.9,0-5.3-2.5-5.3-5.4c0-2.9,2.4-5.4,5.3-5.4h37.2c2.9,0,5.3,2.5,5.3,5.4
				C155.8,417.6,153.4,420,150.5,420z"/>
		</g>
		<g>
			<path class="st0" d="M384.3,420h-37.2c-2.9,0-5.3-2.5-5.3-5.4c0-2.9,2.4-5.4,5.3-5.4h37.2c2.9,0,5.3,2.5,5.3,5.4
				C389.6,417.6,387.2,420,384.3,420z"/>
		</g>
		<g>
			<path class="st0" d="M267.4,420h-37.2c-2.9,0-5.3-2.5-5.3-5.4c0-2.9,2.4-5.4,5.3-5.4h37.2c2.9,0,5.3,2.5,5.3,5.4
				C272.7,417.6,270.3,420,267.4,420z"/>
		</g>
		<g>
			<path class="st0" d="M250,420c-2.9,0-5.3-2.4-5.3-5.3v-81c0-2.9,2.4-5.3,5.3-5.3c2.9,0,5.3,2.4,5.3,5.3v81
				C255.3,417.6,252.9,420,250,420z"/>
		</g>
		<g>
			<path class="st0" d="M130.5,420c-0.6,0-1.3-0.1-1.9-0.4c-2.7-1.1-4.1-4.1-3-6.9l4.9-12.8c5.3-13.7,18.3-22.6,33-22.6h173.1
				c14.7,0,27.6,8.9,33,22.6l4.9,12.7c1.1,2.7-0.3,5.8-3,6.9c-2.7,1.1-5.8-0.3-6.9-3l-4.9-12.7c-3.7-9.6-12.8-15.8-23.1-15.8H163.4
				c-10.3,0-19.3,6.2-23.1,15.8l-4.9,12.7C134.6,418.7,132.6,420,130.5,420z"/>
		</g>
		<g>
			<path class="st0" d="M250,398.7c-8.8,0-15.9-7.1-15.9-15.9c0-8.8,7.1-15.9,15.9-15.9s15.9,7.1,15.9,15.9
				C265.9,391.6,258.8,398.7,250,398.7z M250,377.5c-2.9,0-5.3,2.4-5.3,5.3c0,2.9,2.4,5.3,5.3,5.3c2.9,0,5.3-2.4,5.3-5.3
				C255.3,379.8,252.9,377.5,250,377.5z"/>
		</g>
	</g>
	<g>
		<path class="st0" d="M409.4,287.2c-2.9,0-5.3-2.4-5.3-5.3V98.6c0-4.4-3.6-8-8-8H103.9c-4.4,0-8,3.6-8,8v183.3
			c0,2.9-2.4,5.3-5.3,5.3s-5.3-2.4-5.3-5.3V98.6c0-10.3,8.3-18.6,18.6-18.6h292.2c10.3,0,18.6,8.3,18.6,18.6v183.3
			C414.7,284.8,412.3,287.2,409.4,287.2z"/>
	</g>
	<g>
		<path class="st0" d="M409.4,319H90.6c-5.9,0-10.6-4.8-10.6-10.6v-5.3c0-5.9,4.8-10.6,10.6-10.6h318.8c5.9,0,10.6,4.8,10.6,10.6
			v5.3C420,314.3,415.2,319,409.4,319z M90.6,303.1v5.3h318.8l0-5.3H90.6z"/>
	</g>
	<g>
		<path class="st0" d="M373.6,255H124c-2.9,0-5.3-2.2-5.3-5.1c0-2.9,2.4-5.1,5.3-5.1h249.7c2.9,0,5.3,2.2,5.3,5.1
			C379,252.8,376.6,255,373.6,255z"/>
	</g>
	<g>
		<path class="st0" d="M279.2,255H178.3c-1.9,0-3.6-0.9-4.6-2.5c-1-1.6-1-3.6-0.1-5.2l50.5-90.3c0.9-1.7,2.7-2.7,4.6-2.7
			c1.9,0,3.7,1,4.6,2.7l50.5,90.3c0.9,1.6,0.9,3.5-0.1,5.2C282.8,254.1,281.1,255,279.2,255z M187.3,244.7h82.8l-41.4-74.1
			L187.3,244.7z"/>
	</g>
	<g>
		<path class="st0" d="M175.7,255h-35.1c-1.9,0-3.7-0.9-4.6-2.6c-0.9-1.7-0.9-3.7,0.1-5.3l41.9-69.2c1-1.6,2.7-2.5,4.6-2.5
			c1.9,0,3.6,1,4.5,2.7l16.6,28.7c0.9,1.6,1,3.7,0,5.3l-23.3,40.4C179.4,254.1,177.6,255,175.7,255z M150,244.7h22.6l20.3-35.3
			l-10.5-18.2L150,244.7z"/>
	</g>
	<g>
		<path class="st0" d="M317.7,188.2c-19,0-34.5-15.5-34.5-34.5c0-19,15.5-34.5,34.5-34.5c19,0,34.5,15.5,34.5,34.5
			C352.3,172.7,336.8,188.2,317.7,188.2z M317.7,129.8c-13.2,0-23.9,10.7-23.9,23.9c0,13.2,10.7,23.9,23.9,23.9
			c13.2,0,23.9-10.7,23.9-23.9C341.6,140.5,330.9,129.8,317.7,129.8z"/>
	</g>
	<g>
		<path class="st0" d="M353.6,255h-37.2c-2.1,0-4-1.1-4.8-3c-0.9-1.9-0.5-4.1,0.8-5.6l18.6-21.2c2-2.3,6-2.3,8,0l18.6,21.3
			c1.4,1.6,1.7,3.7,0.8,5.6C357.6,253.9,355.7,255,353.6,255z M328.1,244.7h13.8l-6.9-7.9L328.1,244.7z"/>
	</g>
</g>
</svg>
