<?xml version="1.0" encoding="utf-8"?>
<!-- Generator: Adobe Illustrator 21.0.2, SVG Export Plug-In . SVG Version: 6.00 Build 0)  -->
<svg version="1.1" id="Layer_1" xmlns="http://www.w3.org/2000/svg" xmlns:xlink="http://www.w3.org/1999/xlink" x="0px" y="0px"
	 viewBox="0 0 41 41" style="enable-background:new 0 0 41 41;" xml:space="preserve">
<style type="text/css">
	.st0{fill:#FFFFFF;}
</style>
<path class="st0" d="M11.9,31.2c0,0.1,0.1,0.3,0.2,0.3c0.1,0,0.1,0,0.2,0c0.1,0,0.1,0,0.2,0l5.4-4.2l0.2-0.2l0.2,0.1l4.5,2.7
	c0.2,0.2,0.6,0.2,0.9,0.2c0.6,0,1.1-0.3,1.5-0.8l10.5-17c0.4-0.7,0.4-1.5-0.1-2.2c-0.4-0.5-1-0.7-1.4-0.7c-0.1,0-0.2,0-0.2,0
	l-0.1,0.1l-0.1,0L6.4,16.5c-0.7,0.2-1.2,0.8-1.3,1.5c-0.1,0.7,0.2,1.4,0.8,1.8l5.8,3.5l0.2,0.1v0.2V31.2z M7.7,18.7l-0.8-0.5L7.8,18
	l25.5-6.4l1-0.2l-0.5,0.8L23.9,28l-0.2,0.3l-0.3-0.2L16.6,24l-0.5-0.3l0.4-0.4l6.1-5.2l-9.5,3.7L13,21.9l-0.2-0.1L7.7,18.7z"/>
</svg>
