<?xml version="1.0" encoding="utf-8"?>
<!-- Generator: Adobe Illustrator 21.0.2, SVG Export Plug-In . SVG Version: 6.00 Build 0)  -->
<svg version="1.1" id="Layer_1" xmlns="http://www.w3.org/2000/svg" xmlns:xlink="http://www.w3.org/1999/xlink" x="0px" y="0px"
	 viewBox="0 0 500 500" style="enable-background:new 0 0 500 500;" xml:space="preserve">
<style type="text/css">
	.st0{fill:#323436;}
	.st1{fill:#FFFFFF;}
</style>
<g>
	<g>
		<g>
			<path class="st0" d="M334.4,419.1c-1.4,0-2.7-0.5-3.8-1.5l-249-247.7c-2.1-2.1-2.1-5.4,0-7.5l80.3-79.9c2-2,5.5-2,7.5,0
				l249,247.7c1,1,1.6,2.3,1.6,3.7c0,1.4-0.6,2.7-1.6,3.7l-80.3,79.9C337.1,418.5,335.7,419.1,334.4,419.1z M92.8,166.1l241.5,240.2
				l72.8-72.4L165.6,93.6L92.8,166.1z"/>
		</g>
		<g>
			<g>
				<g>
					<path class="st0" d="M334.4,395.1c-1.4,0-2.7-0.5-3.8-1.5c-2.1-2.1-2.1-5.4,0-7.5l6-6c2.1-2.1,5.4-2.1,7.5,0
						c2.1,2.1,2.1,5.4,0,7.5l-6,6C337.1,394.6,335.7,395.1,334.4,395.1z"/>
				</g>
			</g>
			<g>
				<g>
					<path class="st0" d="M318.3,379.1c-1.4,0-2.7-0.5-3.8-1.5c-2.1-2.1-2.1-5.4,0-7.5l18.1-18c2.1-2.1,5.4-2.1,7.5,0
						c2.1,2.1,2.1,5.4,0,7.5l-18.1,18C321,378.6,319.6,379.1,318.3,379.1z"/>
				</g>
			</g>
			<g>
				<g>
					<path class="st0" d="M302.2,363.1c-1.4,0-2.7-0.5-3.8-1.5c-2.1-2.1-2.1-5.4,0-7.5l6-6c2.1-2.1,5.4-2.1,7.5,0
						c2.1,2.1,2.1,5.4,0,7.5l-6,6C304.9,362.6,303.6,363.1,302.2,363.1z"/>
				</g>
			</g>
			<g>
				<g>
					<path class="st0" d="M286.1,347.1c-1.4,0-2.7-0.5-3.8-1.5c-2.1-2.1-2.1-5.4,0-7.5l18.1-18c2.1-2.1,5.4-2.1,7.5,0
						c2.1,2.1,2.1,5.4,0,7.5l-18.1,18C288.9,346.6,287.5,347.1,286.1,347.1z"/>
				</g>
			</g>
			<g>
				<g>
					<path class="st0" d="M270.1,331.2c-1.4,0-2.7-0.5-3.8-1.5c-2.1-2.1-2.1-5.4,0-7.5l6-6c2.1-2.1,5.4-2.1,7.5,0
						c2.1,2.1,2.1,5.4,0,7.5l-6,6C272.8,330.6,271.4,331.2,270.1,331.2z"/>
				</g>
			</g>
			<g>
				<g>
					<path class="st1" d="M254,315.2c-1.4,0-2.7-0.5-3.8-1.5c-2.1-2.1-2.1-5.4,0-7.5l18.1-18c2.1-2.1,5.4-2.1,7.5,0
						c2.1,2.1,2.1,5.4,0,7.5l-18.1,18C256.7,314.7,255.4,315.2,254,315.2z"/>
				</g>
			</g>
			<g>
				<g>
					<path class="st0" d="M237.9,299.2c-1.4,0-2.7-0.5-3.8-1.5c-2.1-2.1-2.1-5.4,0-7.5l6-6c2.1-2.1,5.4-2.1,7.5,0
						c2.1,2.1,2.1,5.4,0,7.5l-6,6C240.7,298.7,239.3,299.2,237.9,299.2z"/>
				</g>
			</g>
			<g>
				<g>
					<path class="st0" d="M221.9,283.2c-1.4,0-2.7-0.5-3.8-1.5c-2.1-2.1-2.1-5.4,0-7.5l18.1-18c2.1-2.1,5.4-2.1,7.5,0
						c2.1,2.1,2.1,5.4,0,7.5l-18.1,18C224.6,282.7,223.2,283.2,221.9,283.2z"/>
				</g>
			</g>
			<g>
				<g>
					<path class="st0" d="M205.8,267.2c-1.4,0-2.7-0.5-3.8-1.5c-2.1-2.1-2.1-5.4,0-7.5l6-6c2.1-2.1,5.4-2.1,7.5,0
						c2.1,2.1,2.1,5.4,0,7.5l-6,6C208.5,266.7,207.2,267.2,205.8,267.2z"/>
				</g>
			</g>
			<g>
				<g>
					<path class="st1" d="M189.7,251.3c-1.4,0-2.7-0.5-3.8-1.5c-2.1-2.1-2.1-5.4,0-7.5l18.1-18c2.1-2.1,5.4-2.1,7.5,0
						c2.1,2.1,2.1,5.4,0,7.5l-18.1,18C192.5,250.7,191.1,251.3,189.7,251.3z"/>
				</g>
			</g>
			<g>
				<g>
					<path class="st0" d="M173.7,235.3c-1.4,0-2.7-0.5-3.8-1.5c-2.1-2.1-2.1-5.4,0-7.5l6-6c2.1-2.1,5.4-2.1,7.5,0
						c2.1,2.1,2.1,5.4,0,7.5l-6,6C176.4,234.8,175,235.3,173.7,235.3z"/>
				</g>
			</g>
			<g>
				<g>
					<path class="st0" d="M157.6,219.3c-1.4,0-2.7-0.5-3.8-1.5c-2.1-2.1-2.1-5.4,0-7.5l18.1-18c2.1-2.1,5.4-2.1,7.5,0
						c2.1,2.1,2.1,5.4,0,7.5l-18.1,18C160.3,218.8,159,219.3,157.6,219.3z"/>
				</g>
			</g>
			<g>
				<g>
					<path class="st0" d="M141.5,203.3c-1.4,0-2.7-0.5-3.8-1.5c-2.1-2.1-2.1-5.4,0-7.5l6-6c2.1-2.1,5.4-2.1,7.5,0
						c2.1,2.1,2.1,5.4,0,7.5l-6,6C144.3,202.8,142.9,203.3,141.5,203.3z"/>
				</g>
			</g>
			<g>
				<g>
					<path class="st0" d="M125.5,187.3c-1.4,0-2.7-0.5-3.8-1.5c-2.1-2.1-2.1-5.4,0-7.5l18.1-18c2.1-2.1,5.4-2.1,7.5,0
						c2.1,2.1,2.1,5.4,0,7.5l-18.1,18C128.2,186.8,126.8,187.3,125.5,187.3z"/>
				</g>
			</g>
			<g>
				<g>
					<path class="st0" d="M109.4,171.4c-1.4,0-2.7-0.5-3.8-1.5c-2.1-2.1-2.1-5.4,0-7.5l6-6c2.1-2.1,5.4-2.1,7.5,0
						c2.1,2.1,2.1,5.4,0,7.5l-6,6C112.1,170.8,110.8,171.4,109.4,171.4z"/>
				</g>
			</g>
		</g>
		<g>
			<path class="st0" d="M396.6,357.1c-1.4,0-2.7-0.5-3.8-1.5l-249-247.7c-2.1-2.1-2.1-5.4,0-7.5c2.1-2.1,5.4-2.1,7.5,0l249,247.7
				c2.1,2.1,2.1,5.4,0,7.5C399.3,356.6,398,357.1,396.6,357.1z"/>
		</g>
	</g>
	<g>
		<polygon class="st1" points="186,361.6 137.8,313.6 314.5,137.8 362.7,185.8 		"/>
		<path class="st0" d="M186,366.8c-1.4,0-2.7-0.5-3.8-1.5L134,317.4c-2.1-2.1-2.1-5.4,0-7.5l176.7-175.8c2.1-2.1,5.4-2.1,7.5,0
			l48.2,47.9c2.1,2.1,2.1,5.4,0,7.5L189.8,365.3C188.7,366.3,187.4,366.8,186,366.8z M145.3,313.6l40.7,40.5l169.2-168.3l-40.7-40.5
			L145.3,313.6z"/>
	</g>
	<g>
		<g>
			<path class="st0" d="M121.7,382.8c-1.4,0-2.7-0.5-3.8-1.5c-1.3-1.3-1.9-3.3-1.4-5.1l3.5-13.2c0.5-1.8,1.9-3.3,3.8-3.7
				c1.8-0.5,3.8,0,5.1,1.4l9.7,9.7c1.3,1.3,1.9,3.3,1.4,5.1c-0.5,1.8-1.9,3.2-3.8,3.7l-13.2,3.5
				C122.6,382.8,122.2,382.8,121.7,382.8z"/>
		</g>
		<g>
			<path class="st0" d="M151.8,376.2c-2.3,0-4.5-1.5-5.1-3.9c-0.8-2.8,0.9-5.7,3.7-6.5l25.4-7l-35.3-35.1l-7,25.3
				c-0.8,2.8-3.7,4.5-6.5,3.7c-2.8-0.8-4.5-3.7-3.7-6.5l9.5-34c0.5-1.8,1.9-3.2,3.8-3.7c1.8-0.5,3.8,0,5.1,1.4l48.2,47.9
				c1.3,1.3,1.9,3.3,1.4,5.1c-0.5,1.8-1.9,3.2-3.7,3.7l-34.2,9.4C152.7,376.2,152.2,376.2,151.8,376.2z"/>
		</g>
	</g>
	<g>
		<path class="st0" d="M180,340.9c-1.4,0-2.7-0.5-3.8-1.5c-2.1-2.1-2.1-5.4,0-7.5L332.9,176c2.1-2.1,5.4-2.1,7.5,0
			c2.1,2.1,2.1,5.4,0,7.5L183.7,339.3C182.7,340.4,181.3,340.9,180,340.9z"/>
	</g>
	<g>
		<path class="st0" d="M163.9,324.9c-1.4,0-2.7-0.5-3.8-1.5c-2.1-2.1-2.1-5.4,0-7.5l156.7-155.8c2.1-2.1,5.4-2.1,7.5,0
			c2.1,2.1,2.1,5.4,0,7.5L167.7,323.3C166.6,324.4,165.3,324.9,163.9,324.9z"/>
	</g>
	<g>
		<path class="st0" d="M362.7,191.1c-1.4,0-2.8-0.6-3.8-1.5l-48.2-47.9c-2.1-2.1-2.1-5.4,0-7.5l4.5-4.5c5.1-5.1,13.5-5.1,18.6,0
			l37.1,36.9c5.1,5.1,5.1,13.4,0,18.5l-4.5,4.5C365.5,190.5,364.2,191.1,362.7,191.1z M322.1,137.8l40.7,40.5l0.7-0.7
			c0.6-0.6,0.7-1.4,0.7-1.8c0-0.4-0.1-1.1-0.7-1.8l-37.1-36.9c-0.6-0.6-1.4-0.7-1.8-0.7c-0.4,0-1.2,0.1-1.8,0.7L322.1,137.8z"/>
	</g>
	<g>
		<path class="st0" d="M366.8,175.1c-1.4,0-2.7-0.5-3.8-1.5l-36.2-36c-2.1-2.1-2.1-5.4,0-7.5l5.2-5.2c11.4-11.3,29.9-11.3,41.3,0
			l2.3,2.3c11.4,11.3,11.4,29.8,0,41.1l-5.2,5.2C369.5,174.6,368.1,175.1,366.8,175.1z M338.1,133.8l28.6,28.5l1.4-1.4
			c3.5-3.5,5.4-8.1,5.4-13.1c0-4.9-1.9-9.6-5.4-13.1l-2.3-2.3c-7.3-7.2-19-7.2-26.3,0L338.1,133.8z"/>
	</g>
</g>
</svg>
