<?xml version="1.0" encoding="utf-8"?>
<!-- Generator: Adobe Illustrator 21.0.2, SVG Export Plug-In . SVG Version: 6.00 Build 0)  -->
<svg version="1.1" id="Layer_1" xmlns="http://www.w3.org/2000/svg" xmlns:xlink="http://www.w3.org/1999/xlink" x="0px" y="0px"
	 viewBox="0 0 1293.1 681" style="enable-background:new 0 0 1293.1 681;" xml:space="preserve">
<style type="text/css">
	.st0{fill:none;stroke:#FFFFFF;stroke-width:2.7473;stroke-miterlimit:10;stroke-dasharray:4.1208,9.6153;}
	.st1{fill:#FED56D;}
	.st2{fill:#FE5B41;}
	.st3{fill:#AC1057;}
	.st4{fill:#383838;}
	.st5{fill:#353535;}
	.st6{fill:#FE3D4A;}
	.st7{fill:#FFFFFF;}
</style>
<path class="st0" d="M21,217.8c0,0,92-101.3,278.2-78.9c189.1,35.2-40.7,501.2,374.7,501.2c245.1,0,262.1-294.5,280.2-373.3"/>
<g>
	<g>
		<path class="st1" d="M978.6,196.8l-2-0.4l-17-3.3l-1.8-0.3c-23.4,14.3-11.1,43-8.6,46.7c-0.5-3.2,0.2-8.5,2.8-10.7
			c0.4,19,8.6,24.5,8.6,24.5c0.7-9.6,7.3-19,13.4-25.8c-0.5,3.8-0.8,6.5,0,10.4c1.6-6.8,6.5-11.6,8.7-18.2
			C985.5,211.4,984.8,204.7,978.6,196.8z"/>
		<path class="st2" d="M960.3,231.9c0.1-3.7,2.5-13,7.5-18.1c-1.9,5.9-0.4,10.2-0.4,10.2s1.7-5.4,5.5-10.4c3.2-4.2,5.7-8.7,4.9-17.1
			l-19.2-3.9C952.4,205.2,953.4,222.4,960.3,231.9z"/>
	</g>
	<g>
		<path class="st3" d="M1015.1,190.2l-18.5-31.5c-0.9,3.9-2,7.6-3.2,11.3l-7.8,24.1c6.3,4.9,16.9,20.6,14.2,30L1015.1,190.2z"/>
		<g>
			<path class="st3" d="M949.8,187l1-25.5c0.2-4,0.4-7.8,1-11.7l-28.2,22.3l2.6,37.4C927,199.8,942.3,189.1,949.8,187z"/>
		</g>
	</g>
	<path class="st4" d="M993.9,43.3l-20.6,38.4c-14.2,26.4-22.1,55.7-23.3,85.9l-1.1,29.1l0,0c11.3,5.2,23.8,7.7,36.2,7.2l0.1,0
		l9-27.6c9.3-28.5,12.1-58.9,8-88.9l-6-43.7C996.1,42.5,994.5,42.3,993.9,43.3z"/>
	<polygon class="st3" points="979.6,155.3 968.6,153.2 962.8,217.8 	"/>
	<path class="st5" d="M985.1,203.9L985.1,203.9l9.1-27.6c9.3-28.5,12.1-58.9,8-88.9l-6-43.7c-0.8,90-12.8,134.6-20.8,159.9
		C978.1,204,980.5,204.1,985.1,203.9z"/>
	<g>
		<path class="st6" d="M990,113l-1.4,1.9l0.6,3l2.4-3.7c0.3-0.5,0.5-0.9,0.6-1.4l0.6-3l-4.6-0.9l-0.7,3.9L990,113z"/>
		<polygon class="st7" points="985.7,114.8 981.3,121.5 977.9,106.7 972.9,105.6 977.8,126.5 982.8,127.4 987.2,120.7 		"/>
	</g>
</g>
</svg>
