<?xml version="1.0" encoding="utf-8"?>
<!-- Generator: Adobe Illustrator 21.0.2, SVG Export Plug-In . SVG Version: 6.00 Build 0)  -->
<svg version="1.1" id="Layer_1" xmlns="http://www.w3.org/2000/svg" xmlns:xlink="http://www.w3.org/1999/xlink" x="0px" y="0px"
	 viewBox="0 0 41 41" style="enable-background:new 0 0 41 41;" xml:space="preserve">
<style type="text/css">
	.st0{fill:#FFFFFF;}
</style>
<path class="st0" d="M20.5,2.8c3.1,0,5.9,1.3,7.9,3.3c2,2,3.3,4.8,3.3,7.9c0,3.1-2,6.9-3.8,10.2c-0.5,1-1,2-1.5,2.8l-5.1,10.7
	c-0.2,0.4-0.8,0.6-1.2,0.4c-0.2-0.1-0.3-0.2-0.4-0.4l0,0L14.6,27c-0.4-0.9-0.9-1.8-1.4-2.8c-1.8-3.3-3.8-7.1-3.8-10.2
	c0-3.1,1.3-5.9,3.3-7.9C14.6,4.1,17.4,2.8,20.5,2.8L20.5,2.8z M20.5,8.5c1.5,0,2.9,0.6,3.9,1.6c1,1,1.6,2.4,1.6,3.9
	c0,1.5-0.6,2.9-1.6,3.9c-1,1-2.4,1.6-3.9,1.6c-1.5,0-2.9-0.6-3.9-1.6c-1-1-1.6-2.4-1.6-3.9c0-1.5,0.6-2.9,1.6-3.9
	C17.6,9.1,19,8.5,20.5,8.5L20.5,8.5z M23.1,11.4c-0.7-0.7-1.6-1.1-2.6-1.1c-1,0-1.9,0.4-2.6,1.1c-0.7,0.7-1.1,1.6-1.1,2.6
	c0,1,0.4,1.9,1.1,2.6c0.7,0.7,1.6,1.1,2.6,1.1c1,0,1.9-0.4,2.6-1.1c0.7-0.7,1.1-1.6,1.1-2.6C24.2,13,23.8,12.1,23.1,11.4L23.1,11.4z
	 M27.1,7.4c-1.7-1.7-4-2.8-6.6-2.8s-4.9,1-6.6,2.8c-1.7,1.7-2.8,4-2.8,6.6c0,2.7,1.9,6.2,3.6,9.3c0.5,1,1,2,1.5,2.9l4.3,9l4.3-9
	c0.4-0.9,0.9-1.9,1.5-2.9c1.7-3.1,3.6-6.6,3.6-9.3C29.9,11.4,28.8,9.1,27.1,7.4L27.1,7.4z"/>
</svg>
