<?xml version="1.0" encoding="utf-8"?>
<!-- Generator: Adobe Illustrator 21.0.2, SVG Export Plug-In . SVG Version: 6.00 Build 0)  -->
<svg version="1.1" id="Layer_1" xmlns="http://www.w3.org/2000/svg" xmlns:xlink="http://www.w3.org/1999/xlink" x="0px" y="0px"
	 viewBox="0 0 624.7 182.7" style="enable-background:new 0 0 624.7 182.7;" xml:space="preserve">
<style type="text/css">
	.st0{fill:#FFFFFF;}
	.st1{fill:#FE3D4A;}
</style>
<g>
	<path class="st0" d="M220.9,47.6v19.5H175v15h38.3v18.2H175v15h45.9V135H154V47.6H220.9z"/>
	<path class="st0" d="M309.9,80.4c0,12.6-6.2,23.3-15.5,28.3l18,26.3h-26.2L273,113.3h-15.4V135h-21.1V47.6h42.3
		C296.5,47.6,309.9,61.4,309.9,80.4z M257.6,67.2v26.6h18.1c7.2,0,13-6,13-13.4c0-7.2-5.8-13.2-12.8-13.2H257.6z"/>
	<path class="st0" d="M404,109.6c0,14.3-9.1,25.4-33,25.4h-43V47.6h37.9c25.3,0,33.3,10,33.3,24c0,9-6.3,15.3-8.2,16.7
		C399.3,92.6,404,100.2,404,109.6z M379,74.4c0-5.9-3.9-8.7-11.9-8.7H349v18.2h18.1C376.2,83.9,379,81.2,379,74.4z M368.5,99.9H349
		v17h19.5c8.5,0,12.7-2.8,12.7-8.5C381.2,102,376.9,99.9,368.5,99.9z"/>
	<path class="st0" d="M486.5,47.6v19.5h-45.9v15h38.3v18.2h-38.3v15h45.9V135h-66.9V47.6H486.5z"/>
	<path class="st0" d="M586.9,91.2c0,25.4-18.9,43.8-46.1,43.8h-38.7V47.8l38.7-0.1C569.6,47.5,586.9,66,586.9,91.2z M523.2,115.5
		h17.6c14.6,0,24.8-9.6,24.8-24.3c0-15.7-9.9-24-24.8-24h-17.6V115.5z"/>
	<path class="st1" d="M120.6,65.2l-4.8,9.6l5.2,12.4l8.2-18.7c1-2.2,1.5-4.6,1.5-7l0.2-13.8h-21.2l-0.1,17.6h11V65.2z"/>
	<polygon class="st0" points="102.2,76.7 88.1,110.1 61,47.6 37.8,47.6 76.4,135 99.6,135 113.9,101.9 	"/>
</g>
</svg>
