<?xml version="1.0" encoding="utf-8"?>
<!-- Generator: Adobe Illustrator 21.0.2, SVG Export Plug-In . SVG Version: 6.00 Build 0)  -->
<svg version="1.1" id="Layer_1" xmlns="http://www.w3.org/2000/svg" xmlns:xlink="http://www.w3.org/1999/xlink" x="0px" y="0px"
	 viewBox="0 0 500 500" style="enable-background:new 0 0 500 500;" xml:space="preserve">
<style type="text/css">
	.st0{fill:#323436;}
</style>
<g>
	<g>
		<path class="st0" d="M406.7,332.2h-35.2c-2.9,0-5.3-2.4-5.3-5.3c0-2.9,2.4-5.3,5.3-5.3h35.2c1.5,0,2.7-1.2,2.7-2.7V93.3
			c0-1.5-1.2-2.7-2.7-2.7H225c-1.5,0-2.7,1.2-2.7,2.7v12.6c0,2.9-2.4,5.3-5.3,5.3c-2.9,0-5.3-2.4-5.3-5.3V93.3
			c0-7.3,6-13.3,13.3-13.3h181.7c7.3,0,13.3,6,13.3,13.3v225.6C420,326.2,414,332.2,406.7,332.2z"/>
	</g>
	<g>
		<path class="st0" d="M340.8,376.1h-36.4c-2.9,0-5.3-2.4-5.3-5.3c0-2.9,2.4-5.3,5.3-5.3h36.4c1.5,0,2.7-1.2,2.7-2.7V137.2
			c0-1.5-1.2-2.7-2.7-2.7H159.2c-1.5,0-2.7,1.2-2.7,2.7v15.9c0,2.9-2.4,5.3-5.3,5.3c-2.9,0-5.3-2.4-5.3-5.3v-15.9
			c0-7.3,6-13.3,13.3-13.3h181.7c7.3,0,13.3,6,13.3,13.3v225.6C354.1,370.1,348.2,376.1,340.8,376.1z"/>
	</g>
	<g>
		<path class="st0" d="M275,420H93.3C86,420,80,414,80,406.7V181.1c0-7.3,6-13.3,13.3-13.3H275c7.3,0,13.3,6,13.3,13.3v225.6
			C288.2,414,282.3,420,275,420z M93.3,178.5c-1.5,0-2.7,1.2-2.7,2.7v225.6c0,1.5,1.2,2.7,2.7,2.7H275c1.5,0,2.7-1.2,2.7-2.7V181.1
			c0-1.5-1.2-2.7-2.7-2.7H93.3z"/>
	</g>
	<g>
		<path class="st0" d="M169.2,249.9c0,2.9-2.4,5.3-5.3,5.3h-53.2c-2.9,0-5.3-2.4-5.3-5.3v-53.2c0-2.9,2.4-5.3,5.3-5.3h53.2
			c2.9,0,5.3,2.4,5.3,5.3V249.9z M116.2,244.9h42.2v-42.7h-42.2V244.9z"/>
	</g>
	<g>
		<g>
			<g>
				<path class="st0" d="M254.1,334.8H110.7c-2.9,0-5.3-2.2-5.3-5.1c0-2.9,2.4-5.1,5.3-5.1h143.4c2.9,0,5.3,2.2,5.3,5.1
					C259.4,332.6,257,334.8,254.1,334.8z"/>
			</g>
		</g>
		<g>
			<g>
				<path class="st0" d="M254.1,308.3H110.7c-2.9,0-5.3-2.2-5.3-5.1c0-2.9,2.4-5.1,5.3-5.1h143.4c2.9,0,5.3,2.2,5.3,5.1
					C259.4,306,257,308.3,254.1,308.3z"/>
			</g>
		</g>
		<g>
			<g>
				<path class="st0" d="M254.1,281.7H110.7c-2.9,0-5.3-2.2-5.3-5.1c0-2.9,2.4-5.1,5.3-5.1h143.4c2.9,0,5.3,2.2,5.3,5.1
					C259.4,279.5,257,281.7,254.1,281.7z"/>
			</g>
		</g>
		<g>
			<g>
				<path class="st0" d="M254.1,255.2H185c-2.9,0-5.3-2.2-5.3-5.1c0-2.9,2.4-5.1,5.3-5.1h69.1c2.9,0,5.3,2.2,5.3,5.1
					C259.4,253,257,255.2,254.1,255.2z"/>
			</g>
		</g>
		<g>
			<g>
				<path class="st0" d="M254.1,228.7H185c-2.9,0-5.3-2.5-5.3-5.4s2.4-5.4,5.3-5.4h69.1c2.9,0,5.3,2.5,5.3,5.4
					S257,228.7,254.1,228.7z"/>
			</g>
		</g>
		<g>
			<g>
				<path class="st0" d="M254.1,202.2H185c-2.9,0-5.3-2.5-5.3-5.4c0-2.9,2.4-5.4,5.3-5.4h69.1c2.9,0,5.3,2.5,5.3,5.4
					C259.4,199.7,257,202.2,254.1,202.2z"/>
			</g>
		</g>
	</g>
	<g>
		<path class="st0" d="M153.2,382.9h-42.5c-2.9,0-5.3-2.5-5.3-5.4s2.4-5.4,5.3-5.4h42.5c2.9,0,5.3,2.5,5.3,5.4
			S156.1,382.9,153.2,382.9z"/>
	</g>
	<g>
		<path class="st0" d="M254.1,382.9h-15.9c-2.9,0-5.3-2.5-5.3-5.4s2.4-5.4,5.3-5.4h15.9c2.9,0,5.3,2.5,5.3,5.4
			S257,382.9,254.1,382.9z"/>
	</g>
</g>
</svg>
