<?xml version="1.0" encoding="utf-8"?>
<!-- Generator: Adobe Illustrator 21.0.2, SVG Export Plug-In . SVG Version: 6.00 Build 0)  -->
<svg version="1.1" id="Layer_1" xmlns="http://www.w3.org/2000/svg" xmlns:xlink="http://www.w3.org/1999/xlink" x="0px" y="0px"
	 viewBox="0 0 41 41" style="enable-background:new 0 0 41 41;" xml:space="preserve">
<style type="text/css">
	.st0{fill:none;stroke:#FFFFFF;stroke-width:1.9996;stroke-miterlimit:10;}
	.st1{fill:#FFFFFF;}
</style>
<g>
	<path class="st0" d="M20.5,7C12.7,7,6.3,12.7,6.3,19.8c0,2.5,0.8,4.9,2.3,6.9c-0.3,3.1-1,5.4-2.1,6.5c-0.1,0.1-0.2,0.4-0.1,0.5
		C6.4,33.9,6.6,34,6.8,34c0,0,0,0,0.1,0c0.2,0,4.6-0.7,7.9-2.5c1.8,0.7,3.8,1.1,5.8,1.1c7.8,0,14.2-5.7,14.2-12.8S28.3,7,20.5,7z"/>
	<g>
		<circle class="st1" cx="13.9" cy="19.7" r="1.9"/>
		<circle class="st1" cx="20.5" cy="19.7" r="1.9"/>
		<circle class="st1" cx="27.1" cy="19.7" r="1.9"/>
	</g>
</g>
</svg>
