<?xml version="1.0" encoding="utf-8"?>
<!-- Generator: Adobe Illustrator 21.0.2, SVG Export Plug-In . SVG Version: 6.00 Build 0)  -->
<svg version="1.1" id="Layer_1" xmlns="http://www.w3.org/2000/svg" xmlns:xlink="http://www.w3.org/1999/xlink" x="0px" y="0px"
	 viewBox="0 0 500 500" style="enable-background:new 0 0 500 500;" xml:space="preserve">
<style type="text/css">
	.st0{fill:#323436;}
	.st1{fill:#313436;}
</style>
<g>
	<g>
		<path class="st0" d="M406.7,339.4H93.3c-7.3,0-13.3-6-13.3-13.3V120c0-7.3,6-13.3,13.3-13.3h313.4c7.3,0,13.3,6,13.3,13.3v206.1
			C420,333.5,414,339.4,406.7,339.4z M93.3,117.4c-1.5,0-2.7,1.2-2.7,2.7v206.1c0,1.5,1.2,2.7,2.7,2.7h313.4c1.5,0,2.7-1.2,2.7-2.7
			V120c0-1.5-1.2-2.7-2.7-2.7L93.3,117.4L93.3,117.4z"/>
	</g>
	<g>
		<path class="st0" d="M297.1,393.2h-95.6c-2.9,0-5.3-2.3-5.3-5.3c0-2.9,2.4-5.3,5.3-5.3c1,0,25.5-0.7,28.5-32.4
			c0.3-2.9,2.8-5.1,5.8-4.8c2.9,0.3,5.1,2.7,4.8,5.7c-1.5,15.4-7.2,25.3-13.8,31.2H272c-6.6-6-12.4-15.8-13.8-31.2
			c-0.3-2.9,1.9-5.4,4.8-5.7c3-0.3,5.5,1.9,5.8,4.8c3,31.6,27.4,32.4,28.5,32.4c2.9,0,5.3,2.4,5.3,5.3
			C302.5,390.9,300.1,393.2,297.1,393.2L297.1,393.2C297.2,393.2,297.2,393.2,297.1,393.2L297.1,393.2
			C297.2,393.2,297.2,393.2,297.1,393.2L297.1,393.2C297.2,393.2,297.2,393.2,297.1,393.2C297.2,393.2,297.2,393.2,297.1,393.2
			C297.2,393.2,297.2,393.2,297.1,393.2C297.2,393.2,297.2,393.2,297.1,393.2C297.2,393.2,297.2,393.2,297.1,393.2L297.1,393.2
			C297.2,393.2,297.2,393.2,297.1,393.2L297.1,393.2C297.2,393.2,297.2,393.2,297.1,393.2C297.2,393.2,297.2,393.2,297.1,393.2z"/>
	</g>
	<g>
		<path class="st0" d="M344.4,393.2H153.2c-2.9,0-5.3-2.5-5.3-5.4s2.4-5.4,5.3-5.4h191.2c2.9,0,5.3,2.5,5.3,5.4
			C349.7,390.8,347.4,393.2,344.4,393.2z"/>
	</g>
	<g>
		<path class="st0" d="M254.1,324h-10.6c-2.9,0-5.3-2.2-5.3-5.1s2.4-5.1,5.3-5.1h10.6c2.9,0,5.3,2.2,5.3,5.1S257,324,254.1,324z"/>
	</g>
	<g>
		<path class="st0" d="M398.8,134H101.3c-2.9,0-5.3-2.4-5.3-5.3c0-2.9,2.4-5.3,5.3-5.3h297.5c2.9,0,5.3,2.4,5.3,5.3
			C404.1,131.6,401.7,134,398.8,134z"/>
	</g>
	<g>
		<path class="st0" d="M398.8,308H101.3c-2.9,0-5.3-2.4-5.3-5.3s2.4-5.3,5.3-5.3h297.5c2.9,0,5.3,2.4,5.3,5.3
			C404.1,305.6,401.7,308,398.8,308z"/>
	</g>
</g>
<g>
	<g>
		<path class="st1" d="M220.8,235.7c-0.5,0-1.1-0.2-1.5-0.6c-8.7-8.4-13.5-19.7-13.5-31.8c0-24.4,19.8-44.2,44.1-44.2
			s44.1,19.8,44.1,44.2c0,12.1-4.8,23.4-13.5,31.8c-0.9,0.8-2.2,0.8-3-0.1c-0.8-0.9-0.8-2.2,0-3c7.8-7.6,12.2-17.8,12.2-28.7
			c0-22-17.9-39.9-39.8-39.9s-39.8,17.9-39.8,39.9c0,10.9,4.3,21.1,12.2,28.7c0.9,0.8,0.9,2.2,0,3
			C222,235.4,221.4,235.7,220.8,235.7z"/>
	</g>
	<g>
		<path class="st1" d="M268.9,254.6c-1.2,0-2.1-1-2.1-2.2v-10.7h-34.4v10.7c0,1.2-1,2.2-2.2,2.2c-1.2,0-2.2-1-2.2-2.2v-12.9
			c0-1.2,0.9-2.2,2.1-2.2h38.8c1.2,0,2.1,1,2.1,2.2v12.9C271,253.6,270.1,254.6,268.9,254.6z"/>
	</g>
	<g>
		<path class="st1" d="M268.9,276.1h-38.8c-1.2,0-2.1-1-2.1-2.1v-10.8c0-1.2,1-2.2,2.2-2.2c1.2,0,2.2,1,2.2,2.2v8.5h34.4v-8.5
			c0-1.2,0.9-2.2,2.1-2.2c1.2,0,2.1,1,2.1,2.2v10.8C271,275.1,270.1,276.1,268.9,276.1z"/>
	</g>
	<g>
		<path class="st1" d="M259.5,285.7H240c-0.7,0-1.4-0.3-1.8-0.9l-6.8-9.7c-0.5-0.7-0.5-1.6-0.1-2.3c0.4-0.7,1.1-1.2,1.9-1.2h33.2
			c0.8,0,1.5,0.5,1.9,1.2c0.4,0.7,0.3,1.6-0.1,2.3l-6.8,9.7C260.9,285.4,260.2,285.7,259.5,285.7z M241.1,281.6h17.3l3.8-5.5h-24.9
			L241.1,281.6z"/>
	</g>
	<g>
		<path class="st1" d="M273.2,259.9h-47.4c-1.2,0-2.2-0.9-2.2-2.1c0-1.2,1-2.1,2.2-2.1h47.4c1.2,0,2.2,0.9,2.2,2.1
			C275.4,259,274.4,259.9,273.2,259.9z"/>
	</g>
	<g>
		<path class="st1" d="M278.6,241.7h-58.1c-1.2,0-2.2-1-2.2-2.2s1-2.2,2.2-2.2h58.1c1.2,0,2.2,1,2.2,2.2S279.8,241.7,278.6,241.7z"
			/>
	</g>
	<g>
		<g>
			<path class="st1" d="M205.1,236.3c-0.7,0-1.4-0.3-1.8-1c-0.4-0.6-0.8-1.3-1.2-1.9c-0.6-1-0.3-2.3,0.7-3c1-0.6,2.3-0.3,3,0.7
				c0.4,0.6,0.7,1.2,1.1,1.7c0.7,1,0.4,2.3-0.6,3C205.9,236.2,205.5,236.3,205.1,236.3z"/>
		</g>
		<g>
			<path class="st1" d="M200.6,227.9c-0.8,0-1.6-0.5-2-1.3c-0.6-1.3-1.1-2.7-1.6-4.1c-0.4-1.1,0.2-2.3,1.3-2.7
				c1.1-0.4,2.3,0.2,2.7,1.3c0.4,1.3,0.9,2.5,1.5,3.8c0.5,1.1,0,2.4-1.1,2.8C201.2,227.8,200.9,227.9,200.6,227.9z M299.7,227.2
				c-0.3,0-0.6-0.1-0.8-0.2c-1.1-0.5-1.6-1.7-1.2-2.8c0.5-1.2,1-2.5,1.4-3.8c0.4-1.1,1.6-1.7,2.7-1.4c1.1,0.4,1.7,1.6,1.4,2.7
				c-0.4,1.4-1,2.8-1.5,4.1C301.4,226.7,300.6,227.2,299.7,227.2z M197.2,216.8c-1,0-1.9-0.7-2.1-1.7c-0.3-1.4-0.5-2.9-0.7-4.3
				c-0.1-1.2,0.7-2.2,1.9-2.4c1.2-0.1,2.2,0.7,2.4,1.9c0.2,1.3,0.4,2.7,0.6,4c0.2,1.2-0.5,2.3-1.7,2.5
				C197.5,216.8,197.3,216.8,197.2,216.8z M303,216.1c-0.1,0-0.3,0-0.4,0c-1.2-0.2-1.9-1.3-1.7-2.5c0.2-1.3,0.4-2.7,0.6-4
				c0.1-1.2,1.2-2,2.4-1.9c1.2,0.1,2,1.2,1.9,2.4c-0.1,1.5-0.3,2.9-0.6,4.3C304.9,215.4,304,216.1,303,216.1z M196.2,205.1
				C196.2,205.1,196.2,205.1,196.2,205.1c-1.2,0-2.2-0.9-2.2-2.1c0-1.5,0.1-2.9,0.3-4.3c0.1-1.2,1.2-2,2.4-1.9
				c1.2,0.1,2,1.2,1.9,2.4c-0.1,1.3-0.2,2.6-0.2,3.9C198.3,204.2,197.4,205.1,196.2,205.1z M303.8,205.1c-1.2,0-2.1-1.2-2.2-2.3
				c0-1.3-0.1-2.8-0.3-4.2c-0.1-1.2,0.7-2.3,1.9-2.4c1.2-0.1,2.2,0.7,2.4,1.9c0.2,1.4,0.3,3.2,0.3,4.6
				C306,203.8,305.1,204,303.8,205.1C303.9,205.1,303.8,205.1,303.8,205.1z M197.7,193.8c-0.2,0-0.3,0-0.5-0.1
				c-1.2-0.3-1.9-1.4-1.6-2.6c0.3-1.4,0.7-2.8,1.2-4.2c0.4-1.1,1.6-1.8,2.7-1.4c1.1,0.4,1.8,1.6,1.4,2.7c-0.4,1.3-0.8,2.6-1.1,3.9
				C199.5,193.2,198.6,193.8,197.7,193.8z M302.2,193.1c-1,0-1.8-0.7-2.1-1.6c-0.3-1.3-0.7-2.6-1.1-3.9c-0.4-1.1,0.2-2.3,1.4-2.7
				c1.1-0.4,2.3,0.2,2.7,1.4c0.5,1.4,0.9,2.8,1.2,4.2c0.3,1.2-0.4,2.3-1.6,2.6C302.5,193.1,302.4,193.1,302.2,193.1z M201.5,182.9
				c-0.3,0-0.6-0.1-0.9-0.2c-1.1-0.5-1.5-1.8-1-2.9c0.6-1.3,1.3-2.6,2.1-3.9c0.6-1,1.9-1.4,2.9-0.8c1,0.6,1.4,1.9,0.8,2.9
				c-0.7,1.2-1.3,2.4-1.9,3.6C203.1,182.5,202.3,182.9,201.5,182.9z M298.2,182.2c-0.8,0-1.6-0.4-1.9-1.2c-0.6-1.2-1.3-2.4-1.9-3.5
				c-0.6-1-0.3-2.3,0.7-3c1-0.6,2.3-0.3,3,0.7c0.7,1.2,1.5,2.5,2.1,3.8c0.5,1.1,0.1,2.4-1,2.9C298.8,182.1,298.5,182.2,298.2,182.2z
				 M207.6,173.1c-0.5,0-0.9-0.1-1.3-0.5c-0.9-0.7-1.1-2.1-0.4-3c0.9-1.1,1.8-2.3,2.8-3.3c0.8-0.9,2.2-0.9,3-0.1
				c0.9,0.8,0.9,2.2,0.1,3c-0.9,1-1.8,2-2.6,3.1C208.9,172.8,208.3,173.1,207.6,173.1z M291.9,172.5c-0.6,0-1.3-0.3-1.7-0.8
				c-0.8-1-1.7-2.1-2.7-3.1c-0.8-0.9-0.8-2.2,0.1-3c0.9-0.8,2.2-0.8,3,0.1c1,1.1,2,2.2,2.9,3.3c0.7,0.9,0.6,2.3-0.3,3
				C292.9,172.3,292.4,172.5,291.9,172.5z M215.7,164.7c-0.6,0-1.2-0.3-1.7-0.8c-0.8-0.9-0.6-2.3,0.3-3c1.1-0.9,2.3-1.8,3.5-2.7
				c1-0.7,2.3-0.5,3,0.5c0.7,1,0.5,2.3-0.5,3c-1.1,0.8-2.2,1.6-3.2,2.5C216.7,164.6,216.2,164.7,215.7,164.7z M283.8,164.3
				c-0.5,0-1-0.2-1.4-0.5c-1-0.8-2.1-1.7-3.2-2.4c-1-0.7-1.2-2-0.6-3c0.7-1,2-1.2,3-0.6c1.2,0.8,2.4,1.7,3.5,2.6
				c0.9,0.7,1.1,2.1,0.3,3C285,164,284.4,164.3,283.8,164.3z M225.3,158.3c-0.8,0-1.5-0.4-1.9-1.2c-0.5-1.1-0.1-2.4,0.9-2.9
				c1.3-0.7,2.6-1.3,4-1.9c1.1-0.5,2.4,0,2.8,1.1c0.5,1.1,0,2.4-1.1,2.8c-1.2,0.5-2.5,1.1-3.7,1.7
				C226,158.3,225.6,158.3,225.3,158.3z M274,158c-0.3,0-0.7-0.1-1-0.2c-1.2-0.6-2.4-1.2-3.7-1.7c-1.1-0.4-1.6-1.7-1.2-2.8
				c0.4-1.1,1.7-1.6,2.8-1.2c1.3,0.5,2.7,1.2,4,1.8c1.1,0.5,1.5,1.8,1,2.9C275.6,157.6,274.8,158,274,158z M236.1,154.1
				c-0.9,0-1.8-0.6-2.1-1.6c-0.3-1.1,0.4-2.3,1.5-2.6c1.4-0.4,2.8-0.7,4.3-1c1.2-0.2,2.3,0.6,2.5,1.7c0.2,1.2-0.6,2.3-1.7,2.5
				c-1.3,0.2-2.6,0.5-3.9,0.9C236.5,154.1,236.3,154.1,236.1,154.1z M263.2,153.9c-0.2,0-0.4,0-0.5-0.1c-1.3-0.3-2.6-0.6-4-0.8
				c-1.2-0.2-2-1.3-1.8-2.5c0.2-1.2,1.3-2,2.5-1.8c1.4,0.2,2.9,0.6,4.3,0.9c1.2,0.3,1.9,1.5,1.6,2.6
				C265,153.3,264.2,153.9,263.2,153.9z M247.5,152.4c-1.1,0-2.1-0.9-2.1-2.1c-0.1-1.2,0.9-2.2,2.1-2.2c1.5-0.1,2.9-0.1,4.4,0
				c1.2,0,2.1,1,2.1,2.2c0,1.2-1,2.1-2.2,2.1c-1.3,0-2.7,0-4,0C247.6,152.4,247.6,152.4,247.5,152.4z"/>
		</g>
		<g>
			<path class="st1" d="M295.3,235.7c-0.4,0-0.8-0.1-1.2-0.3c-1-0.6-1.3-2-0.7-3c0.4-0.6,0.7-1.2,1.1-1.8c0.6-1,1.9-1.4,2.9-0.8
				c1,0.6,1.4,1.9,0.8,2.9c-0.4,0.6-0.8,1.3-1.2,1.9C296.7,235.4,296,235.7,295.3,235.7z"/>
		</g>
	</g>
	<g>
		<g>
			<path class="st1" d="M240.4,235.7c-0.7,0-1.5-0.4-1.9-1.1l-6.6-11.2c-0.2-0.3-0.3-0.7-0.3-1.1v-24.2c0-1.2,1-2.2,2.2-2.2
				s2.2,1,2.2,2.2v23.6l6.3,10.7c0.6,1,0.3,2.3-0.8,2.9C241.2,235.6,240.8,235.7,240.4,235.7z"/>
		</g>
		<g>
			<path class="st1" d="M259.6,235.7c-0.4,0-0.7-0.1-1.1-0.3c-1-0.6-1.4-1.9-0.8-2.9l6.3-10.7v-23.6c0-1.2,1-2.2,2.2-2.2
				c1.2,0,2.2,1,2.2,2.2v24.2c0,0.4-0.1,0.8-0.3,1.1l-6.6,11.2C261.1,235.3,260.3,235.7,259.6,235.7z"/>
		</g>
	</g>
	<g>
		<path class="st1" d="M248.6,215.7c-0.3,0-0.6-0.1-0.9-0.2c-1.1-0.5-1.6-1.8-1.1-2.9l4.9-10.8l-6.4,2.4c-0.8,0.3-1.7,0.1-2.3-0.5
			c-0.6-0.6-0.7-1.6-0.4-2.4l7.4-16.6c0.5-1.1,1.8-1.6,2.8-1.1c1.1,0.5,1.6,1.8,1.1,2.8l-5.3,12l6.5-2.4c0.8-0.3,1.7-0.1,2.3,0.6
			c0.6,0.6,0.7,1.6,0.4,2.4l-7.1,15.5C250.2,215.3,249.4,215.7,248.6,215.7z"/>
	</g>
</g>
</svg>
