<?xml version="1.0" encoding="utf-8"?>
<!-- Generator: Adobe Illustrator 21.0.2, SVG Export Plug-In . SVG Version: 6.00 Build 0)  -->
<svg version="1.1" id="Layer_1" xmlns="http://www.w3.org/2000/svg" xmlns:xlink="http://www.w3.org/1999/xlink" x="0px" y="0px"
	 viewBox="0 0 500 500" style="enable-background:new 0 0 500 500;" xml:space="preserve">
<style type="text/css">
	.st0{fill:#323436;}
</style>
<g>
	<g>
		<path class="st0" d="M335,134.9h-23c-2.9,0-5.3-2.4-5.3-5.3v-23c0-2.9,2.4-5.3,5.3-5.3c2.9,0,5.3,2.4,5.3,5.3v17.7H335
			c2.9,0,5.3,2.4,5.3,5.3C340.3,132.5,337.9,134.9,335,134.9z"/>
	</g>
	<g>
		<path class="st0" d="M356.2,420H143.8c-2.9,0-5.3-2.4-5.3-5.3V85.3c0-2.9,2.4-5.3,5.3-5.3H312c1.4,0,2.8,0.6,3.8,1.6l44.3,44.3
			c1,1,1.6,2.3,1.6,3.8v285.1C361.6,417.6,359.2,420,356.2,420z M149.1,409.4h201.9V131.8l-41.2-41.2H149.1V409.4z"/>
	</g>
	<g>
		<path class="st0" d="M286,117.1H179.7c-2.9,0-5.3-2.2-5.3-5.1s2.4-5.1,5.3-5.1H286c2.9,0,5.3,2.2,5.3,5.1S288.9,117.1,286,117.1z"
			/>
	</g>
	<g>
		<path class="st0" d="M250,242c-19,0-34.5-15.5-34.5-34.5c0-19,15.5-34.5,34.5-34.5c19,0,34.5,15.5,34.5,34.5
			C284.5,226.5,269,242,250,242z M250,183.6c-13.2,0-23.9,10.7-23.9,23.9c0,13.2,10.7,23.9,23.9,23.9s23.9-10.7,23.9-23.9
			C273.9,194.3,263.2,183.6,250,183.6z"/>
	</g>
	<g>
		<g>
			<g>
				<path class="st0" d="M342,380.1c0,2.9-2.4,5.3-5.3,5.3h-32.1c-2.9,0-5.3-2.4-5.3-5.3V348c0-2.9,2.4-5.3,5.3-5.3h32.1
					c2.9,0,5.3,2.4,5.3,5.3V380.1z M310.1,374.6h21.1v-21.1h-21.1V374.6z"/>
			</g>
		</g>
		<g>
			<g>
				<path class="st0" d="M294.4,380.1c0,2.9-2.4,5.3-5.3,5.3h-32.1c-2.9,0-5.3-2.4-5.3-5.3V348c0-2.9,2.4-5.3,5.3-5.3h32.1
					c2.9,0,5.3,2.4,5.3,5.3V380.1z M261.9,374.6h21.6v-21.1h-21.6V374.6z"/>
			</g>
		</g>
		<g>
			<g>
				<path class="st0" d="M246.2,380.1c0,2.9-2.4,5.3-5.3,5.3h-32.1c-2.9,0-5.3-2.4-5.3-5.3V348c0-2.9,2.4-5.3,5.3-5.3h32.1
					c2.9,0,5.3,2.4,5.3,5.3V380.1z M214.3,374.6h21.1v-21.1h-21.1V374.6z"/>
			</g>
		</g>
		<g>
			<g>
				<path class="st0" d="M198.6,380.1c0,2.9-2.4,5.3-5.3,5.3h-32.1c-2.9,0-5.3-2.4-5.3-5.3V348c0-2.9,2.4-5.3,5.3-5.3h32.1
					c2.9,0,5.3,2.4,5.3,5.3V380.1z M166.7,374.6h21.1v-21.1h-21.1V374.6z"/>
			</g>
		</g>
	</g>
	<g>
		<g>
			<path class="st0" d="M201,212.8h-5.3c-2.9,0-5.3-2.5-5.3-5.4c0-2.9,2.4-5.4,5.3-5.4h5.3c2.9,0,5.3,2.5,5.3,5.4
				C206.3,210.4,203.9,212.8,201,212.8z"/>
		</g>
		<g>
			<path class="st0" d="M177.6,218.1c-2.9,0-6-2.4-6-5.3v-5.3c0-2.9,3.8-5.5,6.7-5.5h5.3c2.9,0,5.3,2.5,5.3,5.4
				c0,2.9-2.7,5.4-5.7,5.4C183.2,215.7,180.5,218.1,177.6,218.1z"/>
		</g>
		<g>
			<path class="st0" d="M177,305.8c-2.9,0-5.4-2.4-5.4-5.3v-10.6c0-2.9,2.5-5.3,5.4-5.3c2.9,0,5.4,2.4,5.4,5.3v10.6
				C182.4,303.4,179.9,305.8,177,305.8z M177,276.6c-2.9,0-5.4-2.4-5.4-5.3v-10.6c0-2.9,2.5-5.3,5.4-5.3c2.9,0,5.4,2.4,5.4,5.3v10.6
				C182.4,274.2,179.9,276.6,177,276.6z M177,247.3c-2.9,0-5.4-2.4-5.4-5.3v-10.6c0-2.9,2.5-5.3,5.4-5.3c2.9,0,5.4,2.4,5.4,5.3V242
				C182.4,245,179.9,247.3,177,247.3z"/>
		</g>
		<g>
			<path class="st0" d="M177,332.3c-2.9,0-5.4-2.4-5.4-5.3v-5.3c0-2.9,2.5-5.3,5.4-5.3c2.9,0,5.4,2.4,5.4,5.3v5.3
				C182.4,330,179.9,332.3,177,332.3z"/>
		</g>
	</g>
	<g>
		<g>
			<path class="st0" d="M301.9,212.8h-5.3c-2.9,0-5.3-2.5-5.3-5.4c0-2.9,2.4-5.4,5.3-5.4h5.3c2.9,0,5.3,2.5,5.3,5.4
				C307.2,210.4,304.9,212.8,301.9,212.8z"/>
		</g>
		<g>
			<path class="st0" d="M321.1,218.1c-2.9,0-5-2.4-5-5.3c-2.9,0-5.2-2.5-5.2-5.4c0-2.9,2.5-5.4,5.5-5.4h5.3c2.9,0,4,2.5,4,5.5v5.3
				C325.7,215.7,324,218.1,321.1,218.1z"/>
		</g>
		<g>
			<path class="st0" d="M320.6,305.8c-2.9,0-5.1-2.4-5.1-5.3v-10.6c0-2.9,2.2-5.3,5.1-5.3s5.1,2.4,5.1,5.3v10.6
				C325.7,303.4,323.5,305.8,320.6,305.8z M320.6,276.6c-2.9,0-5.1-2.4-5.1-5.3v-10.6c0-2.9,2.2-5.3,5.1-5.3s5.1,2.4,5.1,5.3v10.6
				C325.7,274.2,323.5,276.6,320.6,276.6z M320.6,247.3c-2.9,0-5.1-2.4-5.1-5.3v-10.6c0-2.9,2.2-5.3,5.1-5.3s5.1,2.4,5.1,5.3V242
				C325.7,245,323.5,247.3,320.6,247.3z"/>
		</g>
		<g>
			<path class="st0" d="M320.6,332.3c-2.9,0-5.1-2.4-5.1-5.3v-5.3c0-2.9,2.2-5.3,5.1-5.3s5.1,2.4,5.1,5.3v5.3
				C325.7,330,323.5,332.3,320.6,332.3z"/>
		</g>
	</g>
	<g>
		<path class="st0" d="M210.2,369.5h-15.9c-2.9,0-5.3-2.4-5.3-5.3c0-2.9,2.4-5.3,5.3-5.3h15.9c2.9,0,5.3,2.4,5.3,5.3
			C215.5,367.2,213.1,369.5,210.2,369.5z"/>
	</g>
	<g>
		<path class="st0" d="M257.6,369.5h-13.3c-2.9,0-5.3-2.4-5.3-5.3c0-2.9,2.4-5.3,5.3-5.3h13.3c2.9,0,5.3,2.4,5.3,5.3
			C262.9,367.2,260.6,369.5,257.6,369.5z"/>
	</g>
	<g>
		<path class="st0" d="M305.1,369.5h-13.3c-2.9,0-5.3-2.4-5.3-5.3c0-2.9,2.4-5.3,5.3-5.3h13.3c2.9,0,5.3,2.4,5.3,5.3
			C310.4,367.2,308.1,369.5,305.1,369.5z"/>
	</g>
	<g>
		<g>
			<path class="st0" d="M226.1,332.3c-1,0-2.1-0.3-3-0.9c-2.4-1.7-3-5-1.4-7.4l2.3-3.3c1.7-2.4,5-3,7.4-1.4c2.4,1.7,3,5,1.4,7.4
				l-2.3,3.3C229.4,331.5,227.8,332.3,226.1,332.3z"/>
		</g>
		<g>
			<path class="st0" d="M236.7,316.9c-1,0-2.1-0.3-3-0.9c-2.4-1.7-3-5-1.4-7.4l2.8-4c1.7-2.4,5-3,7.4-1.4c2.4,1.7,3,5,1.4,7.4
				l-2.8,4C240,316.1,238.4,316.9,236.7,316.9z"/>
		</g>
		<g>
			<path class="st0" d="M252.3,300.8c-0.8,0-1.6-0.2-2.3-0.5c-1.6,0.8-3.6,0.7-5.3-0.4c-2.4-1.7-3-5-1.4-7.4l2.3-3.2
				c1-1.4,2.6-2.2,4.4-2.2h0c1.8,0,3.4,0.8,4.4,2.3l2.3,3.3c1.7,2.4,1,5.7-1.4,7.4C254.3,300.5,253.3,300.8,252.3,300.8z"/>
		</g>
		<g>
			<path class="st0" d="M263.3,316.9c-1.7,0-3.4-0.8-4.4-2.3l-2.8-4c-1.7-2.4-1-5.7,1.4-7.4c2.4-1.7,5.7-1,7.4,1.4l2.8,4
				c1.7,2.4,1,5.7-1.4,7.4C265.4,316.6,264.4,316.9,263.3,316.9z"/>
		</g>
		<g>
			<path class="st0" d="M273.9,332.3c-1.7,0-3.4-0.8-4.4-2.3l-2.3-3.3c-1.7-2.4-1-5.7,1.4-7.4c2.4-1.7,5.7-1,7.4,1.4l2.3,3.3
				c1.7,2.4,1,5.7-1.4,7.4C276,332,274.9,332.3,273.9,332.3z"/>
		</g>
	</g>
	<g>
		<path class="st0" d="M250,280.9c-2.9,0-5.3-2.4-5.3-5.3v-8c0-2.9,2.4-5.3,5.3-5.3s5.3,2.4,5.3,5.3v8
			C255.3,278.5,252.9,280.9,250,280.9z"/>
	</g>
	<g>
		<path class="st0" d="M259.4,140.9h-79.7c-2.9,0-5.3-2.2-5.3-5.1c0-2.9,2.4-5.1,5.3-5.1h79.7c2.9,0,5.3,2.2,5.3,5.1
			C264.7,138.7,262.4,140.9,259.4,140.9z"/>
	</g>
</g>
</svg>
