<?xml version="1.0" encoding="utf-8"?>
<!-- Generator: Adobe Illustrator 21.0.2, SVG Export Plug-In . SVG Version: 6.00 Build 0)  -->
<svg version="1.1" id="Layer_1" xmlns="http://www.w3.org/2000/svg" xmlns:xlink="http://www.w3.org/1999/xlink" x="0px" y="0px"
	 viewBox="0 0 184 203.5" style="enable-background:new 0 0 184 203.5;" xml:space="preserve">
<style type="text/css">
	.st0{fill:#FED56D;}
	.st1{fill:#FE5B41;}
	.st2{fill:#AC1057;}
	.st3{fill:#353535;}
	.st4{fill:#FE3D4A;}
	.st5{fill:#FFFFFF;}
</style>
<g>
	<g>
		<path class="st0" d="M100.4,138.8h-1.6H85.3h-1.5c-16,14.4-2.6,34.4-0.2,36.7c-0.8-2.4-1-6.5,0.7-8.5c2.9,14.4,9.9,17.4,9.9,17.4
			c-0.8-7.4,3-15.6,6.8-21.6c0.1,3,0.3,5,1.4,7.8c0.3-5.4,3.4-9.8,4.2-15.2C107.7,148.8,106.2,143.8,100.4,138.8z"/>
		<path class="st1" d="M91.1,168.2c-0.5-2.8,0.1-10.2,3.3-14.9c-0.7,4.8,1.1,7.9,1.1,7.9s0.6-4.3,2.8-8.7c1.9-3.6,3.2-7.5,1.4-13.7
			H84.4C81.4,149.1,84.5,162,91.1,168.2z"/>
	</g>
	<g>
		<path class="st2" d="M128.3,128.7l-18.5-21.2c-0.2,3-0.5,6.1-0.9,9.1l-2.7,19.5c5.5,2.8,15.8,13.1,15,20.6L128.3,128.7z"/>
		<g>
			<path class="st2" d="M77.8,136l-2.7-19.5c-0.4-3-0.7-6-0.9-9.1l-18.5,21.2l7.1,28C62.1,149.2,72.3,138.8,77.8,136z"/>
		</g>
	</g>
	<path class="st3" d="M91.1,19.9L80.5,52.1c-7.3,22.1-9.3,45.6-6.1,68.7l3.1,22.3h0c9.5,2.3,19.3,2.3,28.8,0l0.1,0l3.1-22.3
		c3.2-23.1,1.2-46.6-6.1-68.7L92.9,19.9C92.6,19,91.4,19,91.1,19.9z"/>
	<polygon class="st2" points="96.4,107.5 87.6,107.5 92,157.5 	"/>
	<path class="st4" d="M98.7,72.4l-1,1.9l1,2.5l1.6-3.7c0.2-0.4,0.3-0.9,0.3-1.4l0-2.7l-4.2,0l0,3.5L98.7,72.4z"/>
	<polygon class="st5" points="95,74.7 92.2,81.3 86.8,68.9 82.2,68.9 89.9,86.3 94.5,86.3 97.3,79.7 	"/>
</g>
</svg>
