<?xml version="1.0" encoding="utf-8"?>
<!-- Generator: Adobe Illustrator 21.0.2, SVG Export Plug-In . SVG Version: 6.00 Build 0)  -->
<svg version="1.1" id="Layer_1" xmlns="http://www.w3.org/2000/svg" xmlns:xlink="http://www.w3.org/1999/xlink" x="0px" y="0px"
	 viewBox="0 0 500 500" style="enable-background:new 0 0 500 500;" xml:space="preserve">
<style type="text/css">
	.st0{fill:#323436;}
</style>
<g>
	<g>
		<path class="st0" d="M406.6,365.8h-7.3c-2.9,0-5.3-2.4-5.3-5.3c0-2.9,2.4-5.3,5.3-5.3h7.3c1.5,0,2.7-1.2,2.7-2.7v-206
			c0-1.5-1.2-2.7-2.7-2.7H274.3c-2.9,0-5.3-2.4-5.3-5.3c0-2.9,2.4-5.3,5.3-5.3h132.3c7.3,0,13.3,6,13.3,13.3v206
			C419.9,359.8,413.9,365.8,406.6,365.8z"/>
	</g>
	<g>
		<path class="st0" d="M281.9,365.8H93.4c-7.3,0-13.3-6-13.3-13.3v-206c0-7.3,6-13.3,13.3-13.3h27c2.9,0,5.3,2.4,5.3,5.3
			c0,2.9-2.4,5.3-5.3,5.3h-27c-1.5,0-2.7,1.2-2.7,2.7v206c0,1.5,1.2,2.7,2.7,2.7h188.5c2.9,0,5.3,2.4,5.3,5.3
			C287.2,363.4,284.8,365.8,281.9,365.8z"/>
	</g>
	<g>
		<path class="st0" d="M297.1,420h-95.6c-2.9,0-5.3-2.5-5.3-5.4c0-2.9,2.4-5.4,5.3-5.4c1,0,25.5-0.8,28.5-32.5
			c0.3-2.9,2.9-5.1,5.8-4.8c2.9,0.3,5.1,2.9,4.8,5.8c-1.5,15.5-7.2,25-13.9,31.5h45.2c-6.6-6.5-12.4-16-13.8-31.4
			c-0.3-2.9,1.9-5.5,4.8-5.8c2.9-0.3,5.5,1.9,5.8,4.8c3,32,27.4,32.4,28.4,32.4c2.9,0,5.3,2.5,5.3,5.4
			C302.4,417.5,300,420,297.1,420z"/>
	</g>
	<g>
		<path class="st0" d="M344.4,420H153.2c-2.9,0-5.3-2.5-5.3-5.4c0-2.9,2.4-5.4,5.3-5.4h191.1c2.9,0,5.3,2.5,5.3,5.4
			C349.7,417.5,347.3,420,344.4,420z"/>
	</g>
	<g>
		<path class="st0" d="M398.6,160.5H274.3c-2.9,0-5.3-2.4-5.3-5.3c0-2.9,2.4-5.3,5.3-5.3h124.3c2.9,0,5.3,2.4,5.3,5.3
			C404,158.1,401.6,160.5,398.6,160.5z"/>
	</g>
	<g>
		<path class="st0" d="M120.4,160.5h-19c-2.9,0-5.3-2.4-5.3-5.3c0-2.9,2.4-5.3,5.3-5.3h19c2.9,0,5.3,2.4,5.3,5.3
			C125.7,158.1,123.3,160.5,120.4,160.5z"/>
	</g>
	<g>
		<path class="st0" d="M281.9,334.3H101.4c-2.9,0-5.3-2.4-5.3-5.3c0-2.9,2.4-5.3,5.3-5.3h180.5c2.9,0,5.3,2.4,5.3,5.3
			C287.2,331.9,284.8,334.3,281.9,334.3z"/>
	</g>
	<g>
		<g>
			<path class="st0" d="M377.1,395.7h-73.7c-5.7,0-12.3-4-12.3-10.1V238.9c0-6.1,6.6-10.3,12.3-10.3h73.7c5.7,0,9.7,4.3,9.7,10.3
				v146.6C386.8,391.6,382.8,395.7,377.1,395.7z M301.9,384.8c0.5,0.2,1,0.6,1.5,0.6H376v-146h-72.6c-0.5,0-0.9,0.1-1.5,0.3V384.8z"
				/>
		</g>
		<g>
			<path class="st0" d="M381.5,255.1h-84.9c-2.9,0-5.3-2.2-5.3-5.1c0-2.9,2.4-5.1,5.3-5.1h84.9c2.9,0,5.3,2.2,5.3,5.1
				C386.8,252.9,384.4,255.1,381.5,255.1z"/>
		</g>
		<g>
			<path class="st0" d="M381.5,380h-84.9c-2.9,0-5.3-2.5-5.3-5.4c0-2.9,2.4-5.4,5.3-5.4h84.9c2.9,0,5.3,2.5,5.3,5.4
				C386.8,377.5,384.4,380,381.5,380z"/>
		</g>
	</g>
	<g>
		<g>
			<path class="st0" d="M246.7,255.2h-99.5c-9.1,0-16.6-7.4-16.6-16.6v-142c0-9.1,7.4-16.6,16.6-16.6h99.5c9.1,0,16.6,7.4,16.6,16.6
				v142C263.3,247.7,255.8,255.2,246.7,255.2z M147.1,90.6c-3.3,0-6,2.7-6,6v142c0,3.3,2.7,6,6,6h99.5c3.3,0,6-2.7,6-6v-142
				c0-3.3-2.7-6-6-6H147.1z"/>
		</g>
		<g>
			<path class="st0" d="M261.9,231.4c0,2.9-2.4,5.3-5.3,5.3H134.8c-2.9,0-5.3-2.4-5.3-5.3V98.8c0-2.9,2.4-5.3,5.3-5.3h121.8
				c2.9,0,5.3,2.4,5.3,5.3V231.4z M139.7,225.9h111.9V103.7H139.7V225.9z"/>
		</g>
	</g>
</g>
</svg>
