<?xml version="1.0" encoding="utf-8"?>
<!-- Generator: Adobe Illustrator 21.0.2, SVG Export Plug-In . SVG Version: 6.00 Build 0)  -->
<svg version="1.1" id="Layer_1" xmlns="http://www.w3.org/2000/svg" xmlns:xlink="http://www.w3.org/1999/xlink" x="0px" y="0px"
	 viewBox="0 0 400 400" style="enable-background:new 0 0 400 400;" xml:space="preserve">
<style type="text/css">
	.st0{fill:#3B3F45;}
	.st1{fill:#4C5056;}
	.st2{fill:#696D73;}
	.st3{fill:#74787E;}
</style>
<g>
	<path class="st0" d="M200,386.6c103.1,0,186.6-83.6,186.6-186.6C386.6,96.9,303,13.3,200,13.3V386.6z"/>
	<path class="st1" d="M200,13.3C96.9,13.3,13.3,96.9,13.3,199.9C13.3,303,96.9,386.6,200,386.6V13.3z"/>
	<g>
		<path class="st2" d="M326.8,63.5l-8.4,3.3l-3.5,3.9l0.8,4.5l4.3,0.6l2.6,6.6l7.4-3.1l1.2,8.9H329l-6.1-0.9l-6.8,1.2l-6.5,9.4
			l-9.4,1.5l-1.3,8.2l4,1l-1.1,5.3l-9.3-1.9l-8.5,1.9l-1.8,4.8l1.5,10.2l5,2.4l8.4-0.1l5.7-0.5l1.7-4.6l8.9-11.8l5.8,1.2l5.7-5.3
			l1.1,4.1l14.1,9.7l-1.7,2.4l-6.4-0.3l2.5,3.5l3.9,0.9l4.6-2l-0.1-5.7l2-1l-1.6-1.8l-9.4-5.4l-2.5-7.1h7.8l2.5,2.5l6.8,5.9l0.3,7.2
			l7,7.6l2.6-10.4l4.8-2.7l0.9,8.5l4.7,5.3l5-0.1c-10.3-26.4-26.5-49.7-46.9-68.3L326.8,63.5z"/>
		<path class="st2" d="M379.1,147.2h-11.5l-8.8-6.7l-9.3,0.9v5.8h-2.9l-3.1-2.3l-16.1-4.2v-10.6l-20.3,1.6l-6.3,3.5h-8.1l-4-0.4
			l-9.8,5.6v10.5l-20,14.7l1.7,6.3h4.1l-1.1,6l-2.9,1.1l-0.1,15.7l17.3,20.1h7.5l0.5-1.2h13.5l3.9-3.7h7.7l4.2,4.3l11.4,1.2
			l-1.5,15.5l12.7,22.9l-6.7,13.1l0.5,6.2l5.3,5.4v14.8l6.9,9.5v12.3h2.7c25-31.5,40-71.6,40-115.3
			C386.6,181.4,383.9,163.8,379.1,147.2z"/>
		<polygon class="st2" points="295,96.7 300.3,96.7 307.3,96 310.9,91.7 307,90.1 304.9,87.7 301.8,82.4 300.3,75.1 294.3,76.3 
			292.7,78.9 292.7,81.8 295.5,83.8 299.6,86.4 300,89.4 295.6,90.4 		"/>
		<polygon class="st2" points="286.5,84.5 282.9,90.4 282.9,90.4 282.9,94.3 287.1,94.3 294.6,88.9 294.9,84.9 291.4,83.3 		"/>
	</g>
	<path class="st3" d="M200,282.6v-56l-10.7-4.1l-0.6-9.1l-4.2-7.4l-11.5-0.2l-6.7-10.4l-5.9-2.9l-0.3,3.2l-10.7,0.6l-3.9-5.5
		l-11.2-2.3l-9.2,10.7l-14.5-2.5l-1.1-16.4l-10.6-1.8l4.2-8l-1.2-4.6l-13.9,9.3l-8.8-1.1l-3.1-6.8l1.9-7.1l4.8-8.9l11.1-5.6l21.5,0
		l-0.1,6.5l7.7,3.6l-0.6-11.2l5.6-5.6l11.2-7.4l0.8-5.2l11.2-11.6l11.9-6.6l-1.1-0.9l8.1-7.6l3,0.8l1.3,1.7l3.1-3.4l0.8-0.3
		l-3.4-0.5l-3.4-1.1v-3.3l1.8-1.5h4L179,93l1.6,3.2l1.9-0.3v-0.3l0.6,0.2l5.6-0.9l0.8-2.7l3.2,0.8v3l-3,2h0l0.4,3.2l10.1,3.1
		c0,0,0,0,0,0.1l2.3-0.2l0.2-4.4l-8-3.6l-0.5-2.1l6.6-2.3l0.3-6.4l-6.9-4.2l-0.5-10.7l-9.5,4.7h-3.5l0.9-8.2l-13-3.1l-5.4,4.1v12.4
		l-9.6,3.1l-3.9,8.1l-4.2,0.7V81.9l-9.1-1.3l-4.5-3l-1.8-6.7l16.2-9.5l7.9-2.4l0.8,5.3l4.4-0.2l0.3-2.7l4.6-0.7l0.1-0.9l-2-0.8
		l-0.5-2.8l5.7-0.5l3.4-3.6l0.2-0.3l0,0l1-1.1l12-1.5l5.3,4.5L176,61.3l17.6,4.2l2.3-5.9h7.7l2.7-5.1l-5.4-1.4v-6.5L183.8,39
		L172,40.3l-6.7,3.5l0.5,8.5l-7-1.1l-1.1-4.7l6.7-6.1l-12.1-0.6l-3.5,1.1l-1.5,4.1l4.5,0.8l-0.9,4.5l-7.7,0.5l-1.2,3l-11.2,0.3
		c0,0-0.3-6.3-0.8-6.3c-0.5,0,8.8-0.2,8.8-0.2l6.7-6.5l-3.6-1.8l-4.8,4.7l-8-0.5l-4.8-6.7h-10.3l-10.7,8h9.8l0.9,2.9l-2.6,2.4
		l10.9,0.3l1.7,3.9L111.6,54l-0.6-3l-7.7-1.7L99.2,47l-6.1,0C65.2,66.2,43,93.1,29.5,124.6v8.8l7.6,3.6v14.4l7.3,12.4l5.9,0.9
		l0.8-4.2l-7-10.7l-1.4-10.4h4.1l1.7,10.7l10.1,14.7l-2.6,4.7l6.4,9.8l15.9,4v-2.6l6.4,0.9L84,186l5,0.9l7.7,2.1l10.9,12.4l13.9,1
		l1.4,11.3l-9.5,6.7l-0.5,10.1l-1.4,6.2l13.8,17.3l1.1,5.9c0,0,5,1.4,5.6,1.4c0.6,0,11.2,8,11.2,8v31.2l3.8,1.1l-2.6,14.4l6.4,8.5
		l-1.2,14.2l8.4,14.8l10.8,9.4l10.8,0.2l1.1-3.5l-8-6.7l0.5-3.3l1.4-4.1l0.3-4.1l-5.4-0.2l-2.7-3.4l4.5-4.3l0.6-3.3l-5-1.4l0.3-3
		l7.1-1.1l10.8-5.2l3.6-6.7l11.4-14.5l-2.6-11.4L200,282.6z"/>
	<polygon class="st2" points="222.7,235.2 218,227.5 202,227.3 200,226.6 200,282.6 200.9,280.9 211.3,281.2 218.4,275.7 
		220.6,253.7 228.4,243.8 229.8,237.5 	"/>
	<polygon class="st3" points="200,298.4 200,298.3 200,298.1 	"/>
</g>
</svg>
